<svg version="1.2" xmlns="http://www.w3.org/2000/svg" viewBox="0 0 80 86" width="80" height="86">
	<style>
		.s0 { fill: #e02829 } 
		.s1 { fill: #2fa4db } 
		.s2 { fill: #f9cc02 } 
		.s3 { fill: #245da5 } 
		.s4 { fill: #77c4ea } 
		.s5 { fill: #ef8d1c } 
		.s6 { fill: #f6b703 } 
		.s7 { fill: #245ea2 } 
		.s8 { fill: #49609f } 
		.s9 { fill: #ed861f } 
		.s10 { fill: #247fbd } 
		.s11 { fill: #e97b22 } 
		.s12 { fill: #1e7fc1 } 
		.s13 { fill: #495e9e } 
		.s14 { fill: #216fb2 } 
		.s15 { fill: #df2b43 } 
		.s16 { fill: #e02b43 } 
		.s17 { fill: #fbd403 } 
		.s18 { fill: #1f7fc1 } 
		.s19 { fill: #275ea4 } 
		.s20 { fill: #f6b704 } 
		.s21 { fill: #2c4279 } 
		.s22 { fill: #fadc03 } 
		.s23 { fill: #f7fcfd } 
		.s24 { fill: #f0921c } 
		.s25 { fill: #2c4278 } 
		.s26 { fill: #e02b42 } 
		.s27 { fill: #de2c44 } 
		.s28 { fill: #49629e } 
		.s29 { fill: #dd2c44 } 
		.s30 { fill: #e22a43 } 
		.s31 { fill: #2d4278 } 
		.s32 { fill: #297d3f } 
		.s33 { fill: #2d4279 } 
		.s34 { fill: #252322 } 
		.s35 { fill: #242524 } 
		.s36 { fill: #73c6ec } 
		.s37 { fill: #76c5ea } 
		.s38 { fill: #287d3f } 
		.s39 { fill: #1e80c0 } 
		.s40 { fill: #252421 } 
		.s41 { fill: #252422 } 
		.s42 { fill: #2482c0 } 
		.s43 { fill: #2a7c3f } 
		.s44 { fill: #3aa7dc } 
		.s45 { fill: #297d3e } 
		.s46 { fill: #37addf } 
		.s47 { fill: #242422 } 
		.s48 { fill: #f4a30e } 
		.s49 { fill: #207fbf } 
		.s50 { fill: #379dd3 } 
		.s51 { fill: #e08734 } 
		.s52 { fill: #f5ab0d } 
		.s53 { fill: #1f61a9 } 
		.s54 { fill: #2b7c3e } 
		.s55 { fill: #3997c2 } 
		.s56 { fill: #42abdb } 
		.s57 { fill: #389cd3 } 
		.s58 { fill: #38addf } 
		.s59 { fill: #475f9e } 
		.s60 { fill: #3b97c5 } 
		.s61 { fill: #efb00e } 
		.s62 { fill: #d88d2d } 
		.s63 { fill: #df2c41 } 
		.s64 { fill: #3997c8 } 
		.s65 { fill: #fab10e } 
		.s66 { fill: #f5b607 } 
		.s67 { fill: #e9a018 } 
		.s68 { fill: #325c8a } 
		.s69 { fill: #8cc7e4 } 
		.s70 { fill: #3c6aab } 
		.s71 { fill: #347742 } 
		.s72 { fill: #337743 } 
		.s73 { fill: #d97935 } 
		.s74 { fill: #3f6dad } 
		.s75 { fill: #ec9d0c } 
		.s76 { fill: #275a84 } 
		.s77 { fill: #275f95 } 
		.s78 { fill: #4cabd3 } 
		.s79 { fill: #d52c30 } 
		.s80 { fill: #267bab } 
		.s81 { fill: #3da5dc } 
		.s82 { fill: #e57f23 } 
		.s83 { fill: #3370af } 
		.s84 { fill: #f19f0d } 
		.s85 { fill: #3a724a } 
		.s86 { fill: #e7a815 } 
		.s87 { fill: #ec9e0f } 
		.s88 { fill: #dd7e2f } 
		.s89 { fill: #334267 } 
		.s90 { fill: #c8354b } 
		.s91 { fill: #3f96cc } 
		.s92 { fill: #ecae13 } 
		.s93 { fill: #3a98cc } 
		.s94 { fill: #f4c002 } 
		.s95 { fill: #3d9dc8 } 
		.s96 { fill: #3c5da3 } 
		.s97 { fill: #3997d3 } 
		.s98 { fill: #377543 } 
		.s99 { fill: #f3a80e } 
		.s100 { fill: #2067a9 } 
		.s101 { fill: #3da0d4 } 
		.s102 { fill: #3665a9 } 
		.s103 { fill: #3e7fac } 
		.s104 { fill: #90c7ec } 
		.s105 { fill: #8ccdee } 
		.s106 { fill: #e6a22b } 
		.s107 { fill: #46a8d5 } 
		.s108 { fill: #67a7cd } 
		.s109 { fill: #db8a2e } 
		.s110 { fill: #347ba5 } 
		.s111 { fill: #eabc17 } 
		.s112 { fill: #f08e0c } 
		.s113 { fill: #88bedd } 
		.s114 { fill: #489bce } 
		.s115 { fill: #efa110 } 
		.s116 { fill: #e79236 } 
		.s117 { fill: #1e67a9 } 
		.s118 { fill: #2a5e94 } 
		.s119 { fill: #ee9b0d } 
		.s120 { fill: #eaa90e } 
		.s121 { fill: #d32b38 } 
		.s122 { fill: #ef9c0e } 
		.s123 { fill: #1f6eb1 } 
		.s124 { fill: #3970ac } 
		.s125 { fill: #3f92cd } 
		.s126 { fill: #cc853f } 
		.s127 { fill: #f6a50d } 
		.s128 { fill: #cc3033 } 
		.s129 { fill: #3b90c7 } 
		.s130 { fill: #ef9911 } 
		.s131 { fill: #f6a60e } 
		.s132 { fill: #30aede } 
		.s133 { fill: #75c2f5 } 
		.s134 { fill: #46afd6 } 
		.s135 { fill: #377449 } 
		.s136 { fill: #2b5e92 } 
		.s137 { fill: #2d5d90 } 
		.s138 { fill: #f0941e } 
		.s139 { fill: #f3bd02 } 
		.s140 { fill: #46a3d8 } 
		.s141 { fill: #ecc40b } 
		.s142 { fill: #77b0da } 
		.s143 { fill: #e9aa18 } 
		.s144 { fill: #3797cc } 
		.s145 { fill: #ecc00b } 
		.s146 { fill: #2574b2 } 
		.s147 { fill: #d88427 } 
		.s148 { fill: #cf2f2e } 
		.s149 { fill: #2f5c9b } 
		.s150 { fill: #74afd2 } 
		.s151 { fill: #68a7c9 } 
		.s152 { fill: #efc80c } 
		.s153 { fill: #e3b715 } 
		.s154 { fill: #3e62a4 } 
		.s155 { fill: #63bbe8 } 
		.s156 { fill: #f6a90f } 
		.s157 { fill: #315b96 } 
		.s158 { fill: #355d9f } 
		.s159 { fill: #e59e24 } 
		.s160 { fill: #515e90 } 
	</style>
	<path class="s0" d="m41.22 15.2c0.88 0.77 1.25 1.84 1.38 2.98 0.19 2.71-0.89 5.24-2.02 7.65q0.1 0 0.21 0c1.71-0.04 3.11-0.06 4.56 0.96 0.17 0.11 0.17 0.11 0.34 0.23 1.36 1.36 1.81 3.37 1.82 5.24-0.05 4.61-3.09 9.7-5.97 13.13-0.14 0.16-0.14 0.16-0.27 0.32q-1.08 1.29-2.28 2.47-0.28 0.28-0.56 0.56-0.9 0.92-1.87 1.75-0.17 0.15-0.34 0.29-1.24 1.06-2.52 2.05-0.36 0.28-0.71 0.55-0.24 0.19-0.49 0.38-0.57 0.45-1.13 0.91c-1.62 1.32-3.22 2.6-5.41 2.42-0.85-0.23-1.5-0.65-2-1.38q-0.66-1.21-0.37-2.54c0.56-1.93 2.08-3.03 3.74-3.96 1.09-0.59 2.2-1.02 3.38-1.39 1.51-0.48 2.63-1.21 3.83-2.22q0.1-0.07 0.19-0.15c2.32-1.93 5.11-4.68 5.46-7.85q0.05-1.27-0.68-2.32c-0.41-0.42-0.88-0.34-1.43-0.34-3 0-5.29 1.5-7.41 3.49-0.22 0.22-0.39 0.43-0.56 0.69-0.27 0.37-0.44 0.47-0.86 0.64-0.37 0.04-0.37 0.04-0.75 0.04q-0.19 0-0.38 0c-0.48-0.06-0.75-0.21-1.08-0.56-0.24-0.42-0.23-0.83-0.13-1.29 0.24-0.33 0.54-0.58 0.85-0.85q0.38-0.42 0.74-0.85 0.13-0.15 0.26-0.3 0.96-1.12 1.83-2.31 0.49-0.66 0.98-1.3c2.77-3.6 2.77-3.6 3.4-8-0.09-0.48-0.27-0.83-0.64-1.16-0.55-0.38-1.04-0.4-1.69-0.32-1.58 0.42-2.98 1.2-4.24 2.23q-0.11 0.08-0.23 0.17c-1.12 0.91-1.93 2.21-2.63 3.44-0.11 0.18-0.11 0.18-0.22 0.37-0.44 0.78-0.66 1.31-0.61 2.2 0.04 1.18-0.27 1.97-1 2.89-0.56 0.6-1.31 1.1-2.13 1.16-0.51-0.04-0.77-0.18-1.1-0.55-0.52-0.86-0.26-2.06-0.04-2.97 0.99-3.75 3.2-7.33 5.73-10.22q0.12-0.14 0.24-0.28c0.98-1.1 2-2.1 3.15-3.02q0.19-0.15 0.37-0.3c2.86-2.35 7.63-5.38 11.29-2.78z"/>
	<path class="s1" d="m28.28 3.69c0.12 0 0.12 0 0.25 0q0.4 0 0.8 0 0.14 0 0.28 0c1.45 0 2.86 0.08 4.3 0.35 0.14 0.03 0.14 0.03 0.29 0.05 2.39 0.44 4.73 1.21 6.91 2.29q0.14 0.06 0.28 0.13 3.34 1.63 6.19 4.01 0.09 0.08 0.18 0.16c1.39 1.15 2.73 2.4 3.84 3.82q0.22 0.28 0.45 0.54c4.24 4.85 6.06 10.95 5.68 17.32-0.38 4.4-2.59 8.31-5.45 11.58q-0.24 0.28-0.48 0.57c-0.48 0.57-0.96 1.14-1.5 1.66q-0.27 0.27-0.52 0.57-0.6 0.68-1.22 1.33-0.22 0.24-0.45 0.48-0.1 0.11-0.22 0.23c-0.75 0.8-1.49 1.6-2.18 2.46q-0.29 0.36-0.58 0.71c-1.94 2.31-2.86 4.76-3.61 7.65q-0.2 0.76-0.41 1.52c-1.31-0.74-2.17-2.08-2.6-3.51-0.9-3.77 1.03-7.67 2.92-10.82 0.66-1.06 1.37-2.09 2.07-3.13 3.5-5.21 6.61-9.92 6.06-16.45-0.01-0.13-0.01-0.13-0.02-0.26-0.42-4.92-1.58-9.54-4.4-13.66q-0.06-0.1-0.13-0.19c-1.12-1.63-2.62-3.01-4.22-4.17q-0.16-0.12-0.33-0.25-0.51-0.36-1.04-0.71-0.1-0.06-0.19-0.12c-2.37-1.56-5.13-2.41-7.87-3.07q-0.11-0.03-0.22-0.06-2.04-0.49-4.12-0.79c0.4-0.26 0.8-0.24 1.26-0.24z"/>
	<path class="s2" d="m14.62 8.08c0.06 0.34 0.06 0.56-0.14 0.84q-0.09 0.11-0.19 0.23c-0.42 0.52-0.76 1.07-1.09 1.65q-0.09 0.15-0.18 0.31-0.68 1.16-1.26 2.38-0.11 0.23-0.22 0.46c-2.05 4.28-2.57 8.78-1.04 13.32 1.26 3.57 3.19 6.71 5.66 9.54 3.8 4.37 6.76 8.95 6.79 14.95q0 0.11 0 0.23c0 1.82-0.33 3.56-0.67 5.34q-0.24 1.28-0.32 2.58c-0.03 0.36-0.03 0.36-0.13 0.58q-0.16-0.06-0.32-0.11-0.01-0.1-0.03-0.21c-0.29-2.13-0.76-3.97-1.77-5.86q-0.16-0.29-0.3-0.59c-0.52-1.04-1.16-1.96-1.85-2.88q-0.26-0.35-0.52-0.7-0.8-1.09-1.67-2.14-0.31-0.39-0.62-0.78-0.61-0.75-1.24-1.48-0.49-0.58-0.97-1.17-0.48-0.59-0.99-1.14-0.64-0.71-1.24-1.46-0.32-0.39-0.65-0.77c-0.74-0.86-1.41-1.78-2.08-2.71q-0.2-0.28-0.41-0.55c-3.02-3.99-4.27-9.29-3.65-14.23 0.71-5.07 3.29-10.15 7.35-13.35 0.6-0.44 1.24-0.8 1.9-1.15q0.72-0.39 1.36-0.89c0.31-0.24 0.31-0.24 0.49-0.24z"/>
	<path class="s3" d="m28.28 3.69c0.12 0 0.12 0 0.25 0q0.4 0 0.8 0 0.14 0 0.28 0c1.45 0 2.86 0.08 4.3 0.35 0.14 0.03 0.14 0.03 0.29 0.05 2.39 0.44 4.73 1.21 6.91 2.29q0.14 0.06 0.28 0.13 3.34 1.63 6.19 4.01 0.09 0.08 0.18 0.16c1.39 1.15 2.73 2.4 3.84 3.82q0.22 0.28 0.45 0.54c4.24 4.85 6.06 10.95 5.68 17.32-0.38 4.4-2.59 8.31-5.45 11.58q-0.24 0.28-0.48 0.57c-0.54 0.63-1.08 1.26-1.68 1.84q-0.13 0.13-0.26 0.26-0.08 0.08-0.16 0.16 0-0.15 0-0.32-0.11 0-0.22 0c-0.01-0.44-0.02-0.76 0.11-1.19 0.12-0.45 0.14-0.86 0.15-1.32 0.03-0.79 0.14-1.51 0.38-2.27q0.04-0.16 0.09-0.33c0.25-0.79 0.25-0.79 0.65-1.03q0.16-0.06 0.32-0.13c0.24-0.31 0.41-0.62 0.59-0.97 0.24-0.48 0.24-0.48 0.47-0.62 0.44 0.02 0.69 0.07 1.06 0.32q0.26 0.06 0.53 0.1-0.03-0.14-0.06-0.28-0.25-1.13-0.47-2.27-0.16-0.05-0.32-0.1c-0.2-0.46-0.24-0.88-0.26-1.37-0.03-0.43-0.06-0.83-0.17-1.24-0.17-0.64-0.17-0.64-0.1-1.01q0.27-0.29 0.57-0.55c0.27-0.3 0.29-0.55 0.28-0.94q-0.05-0.11-0.11-0.24c-0.13-0.37-0.12-0.68-0.12-1.08 0-0.11 0-0.11 0.01-0.23q0-0.47 0.01-0.95 0.01-0.35 0.01-0.7 0-0.21 0.01-0.43c-0.03-0.52-0.11-1.02-0.36-1.49-0.13-0.28-0.07-0.48-0.01-0.78 0.08-0.77-0.18-1.28-0.5-1.96-0.27-0.65-0.49-1.2-0.43-1.92q0.02-0.14 0.03-0.28 0.04-0.39 0.08-0.78-0.1 0-0.21 0c-0.17-0.44-0.24-0.8-0.21-1.28q0.36-0.05 0.74-0.1-0.1-0.38-0.21-0.75-0.11-0.05-0.22-0.1c-0.06-0.27-0.06-0.27-0.1-0.53q-0.16-0.06-0.32-0.11c-0.19-0.2-0.19-0.2-0.38-0.46q-0.1-0.12-0.2-0.25c-0.15-0.23-0.22-0.4-0.27-0.67q-0.1 0-0.21 0-0.06-0.12-0.13-0.24c-0.17-0.31-0.17-0.31-0.48-0.49-0.44-0.29-0.68-0.65-0.98-1.08q-0.08-0.1-0.16-0.2c-0.22-0.29-0.36-0.49-0.4-0.86 0.02-0.1 0.02-0.1 0.03-0.21 0.36-0.16 0.55-0.22 0.96-0.22q0-0.1 0-0.21-0.37-0.1-0.75-0.21 0-0.11 0-0.22-0.62-0.25-1.27-0.42 0.26 0.72 0.58 1.42 0.27 0.58 0.52 1.17 0.05 0.12 0.1 0.25c0.08 0.27 0.09 0.49 0.07 0.77-0.31-0.1-0.31-0.1-0.42-0.28-0.05-0.11-0.05-0.11-0.09-0.22-0.2-0.42-0.42-0.67-0.76-0.98q-0.2-0.21-0.4-0.42-0.41-0.42-0.88-0.75c-0.87-0.64-1.1-1.27-1.29-2.32-0.13-0.57-0.33-0.86-0.82-1.19q0-0.11 0-0.21-0.11-0.04-0.22-0.08c-0.44-0.2-0.82-0.42-1.14-0.79-0.33-0.29-0.65-0.32-1.08-0.41 0.14 0.4 0.29 0.46 0.64 0.69 0.66 0.47 1.12 1 1.59 1.65q0.09 0.12 0.19 0.25c0.36 0.51 0.65 1.04 0.76 1.66q-0.05 0.16-0.1 0.32-0.06-0.07-0.12-0.14c-1.41-1.66-3.03-3.02-4.86-4.22q-0.1-0.06-0.19-0.12c-2.37-1.56-5.13-2.41-7.87-3.07q-0.11-0.03-0.22-0.06-2.04-0.49-4.12-0.79c0.4-0.26 0.8-0.24 1.26-0.24z"/>
	<path class="s4" d="m45.35 41.25c0.01 0.09 0.01 0.09 0.01 0.18q0.01 0.12 0.02 0.25 0.01 0.12 0.02 0.24c0.05 0.3 0.05 0.3 0.22 0.63 0.18 0.47 0.17 0.78 0.12 1.27-0.08 0.63-0.08 0.63 0.03 1.25 0.32-0.05 0.48-0.14 0.75-0.32 0.51-0.3 1.02-0.29 1.59-0.21 0.46 0.14 0.76 0.34 1.1 0.68 0.26 0.61 0.34 1.21 0.27 1.87-0.14 0.26-0.28 0.39-0.52 0.57-0.22 0.17-0.39 0.36-0.57 0.57q-0.57 0.66-1.17 1.29-0.8 0.83-1.52 1.73-0.28 0.35-0.57 0.7c-1.94 2.31-2.86 4.76-3.61 7.65q-0.2 0.76-0.41 1.52c-1.31-0.74-2.17-2.08-2.6-3.51-0.9-3.76 1.03-7.66 2.92-10.81q1.03-1.63 2.12-3.22 0.36-0.54 0.72-1.09 0.08-0.11 0.15-0.22 0.14-0.22 0.28-0.43c0.39-0.59 0.39-0.59 0.65-0.59z"/>
	<path class="s5" d="m12.29 9.46c0.11 0.05 0.11 0.05 0.21 0.11-0.29 0.33-0.59 0.52-0.97 0.73-0.42 0.26-0.77 0.59-0.93 1.07-0.18 0.15-0.18 0.15-0.39 0.3q-0.44 0.31-0.81 0.69c-0.29 0.29-0.29 0.29-0.61 0.4q-0.22 0.31-0.42 0.63-0.26 0.38-0.53 0.75 0.52 0.1 1.06 0.21c0.05 0.72-0.1 1.17-0.42 1.81-0.42 0.82-0.56 1.43-0.54 2.35q0.01 0.28 0.01 0.57c0 0.12 0 0.12 0.01 0.25-0.01 0.23-0.06 0.43-0.12 0.66-0.11 1.05-0.15 2.09-0.05 3.14 0.09 1 0.11 2-0.03 2.99q-0.07 0.81-0.08 1.63c-0.01 0.2-0.01 0.2-0.02 0.4q-0.04 1.29-0.05 2.58c0 0.15 0 0.15 0 0.31q-0.01 0.14-0.01 0.28 0 0.13 0 0.25c0.02 0.25 0.02 0.25 0.24 0.53q0.08 0.23 0.15 0.46c0.1 0.32 0.22 0.6 0.39 0.89 0.39 0.69 0.32 1.43 0.3 2.2-0.01 0.5 0.05 0.87 0.22 1.34q0 0.21 0 0.43 0.21 0 0.42 0c0.4 0.46 0.52 0.91 0.64 1.49q0.1 0 0.21 0 0.05 0.21 0.11 0.42 0.1 0 0.21 0 0 0.16 0 0.32c-0.23 0.13-0.23 0.13-0.53 0.21-0.25-0.11-0.25-0.11-0.48-0.29-0.3-0.23-0.52-0.38-0.9-0.45q-0.1 0.21-0.21 0.43c-3.55-4.5-5.52-9.8-4.88-15.58 0.63-5.02 3.13-10.19 7.12-13.4 0.53-0.41 1.07-0.82 1.68-1.11z"/>
	<path class="s6" d="m41.22 64.53c0.23 0.47 0.2 0.98 0.04 1.48-0.44 1.1-1.11 2.59-2.16 3.19q-0.48 0.15-0.98 0.26c-0.15 0.03-0.15 0.03-0.3 0.06q-0.31 0.07-0.62 0.14-0.49 0.11-0.97 0.23c-3.94 0.9-6.68-0.46-10.07-2.36q-1.13-0.62-2.3-1.16-0.88-0.4-1.71-0.89 0-0.1 0-0.21 0.24-0.1 0.49-0.21 0.13-0.05 0.27-0.11c1.64-0.58 3.56-0.06 5.21 0.23q0.5 0.09 1.01 0.17 0.36 0.07 0.73 0.14c1.92 0.34 3.87 0.4 5.66-0.48 0.93-0.45 1.87-0.53 2.88-0.6q0.17-0.02 0.35-0.03c1.99-0.15 1.99-0.15 2.47 0.15z"/>
	<path class="s7" d="m58.07 50.28c0.28 0.2 0.48 0.33 0.63 0.64q0.02 0.34 0.02 0.68c0 0.1 0 0.1 0 0.21q0 0.35 0 0.69 0 0.24 0.01 0.48 0 0.51 0 1.01 0 0.65 0 1.3 0.01 0.5 0.01 0.99 0 0.24 0 0.48 0 0.33 0 0.67c0 0.19 0 0.19 0 0.38-0.04 0.37-0.13 0.57-0.36 0.87-1.06 0.8-2.99 0.61-4.26 0.5-0.97-0.14-1.74-0.55-2.36-1.31-0.54-0.85-0.71-1.82-0.58-2.8 0.33-1.31 1.09-2.27 2.22-2.98 0.95-0.48 1.75-0.48 2.76-0.21 0.17-0.29 0.21-0.46 0.24-0.8 0.08-0.37 0.08-0.37 0.33-0.63 0.48-0.3 0.78-0.29 1.34-0.17zm-4.24 4.15c-0.33 0.52-0.26 1.11-0.21 1.7 0.18 0.55 0.47 0.85 0.95 1.17 0.43 0.12 0.66 0.13 1.08-0.02 0.38-0.25 0.62-0.53 0.83-0.94 0.06-0.77 0.05-1.5-0.47-2.11-0.42-0.35-0.78-0.38-1.3-0.37-0.42 0.06-0.6 0.26-0.88 0.57z"/>
	<path class="s7" d="m67.39 52.44c0.6 0.51 1.09 1.22 1.2 2.02q0.05 1.05-0.46 1.99c-0.28 0.3-0.43 0.32-0.84 0.35q-0.26 0-0.52-0.01-0.13 0-0.27 0-0.43 0-0.86-0.01-0.44-0.01-0.87-0.01-0.27 0-0.54-0.01c-0.35 0-0.63 0-0.97 0.11q0.05 0.21 0.1 0.43c0.51 0.15 1.04 0.14 1.56 0.16 0.37 0.05 0.53 0.09 0.78 0.37 0.05 0.28 0.05 0.28 0.04 0.58q0 0.16 0 0.31c-0.04 0.28-0.04 0.28-0.18 0.47-0.55 0.39-1.35 0.28-1.98 0.18-1.05-0.23-2.04-0.65-2.72-1.52-0.63-1.01-0.7-2.44-0.46-3.58 0.28-0.93 0.86-1.59 1.69-2.07 1.69-0.76 3.74-0.88 5.3 0.24zm-4.34 1.78c-0.15 0.22-0.15 0.22-0.22 0.42 0.37 0.25 0.52 0.24 0.95 0.24q0.18 0 0.37 0c0.19-0.01 0.19-0.01 0.39-0.01q0.19 0 0.38 0c0.62 0.03 0.62 0.03 1.2-0.12-0.04-0.34-0.11-0.43-0.36-0.66-0.75-0.52-2.05-0.54-2.71 0.13z"/>
	<path class="s8" d="m28.28 3.69c0.12 0 0.12 0 0.25 0q0.4 0 0.8 0 0.14 0 0.28 0c1.45 0 2.86 0.08 4.3 0.35 0.14 0.03 0.14 0.03 0.29 0.05 2.39 0.44 4.73 1.21 6.91 2.29q0.14 0.06 0.28 0.13 3.34 1.63 6.19 4.01 0.09 0.08 0.18 0.16 1.21 1.01 2.33 2.13 0.11 0.11 0.22 0.22c0.35 0.34 0.64 0.67 0.87 1.11-0.41-0.06-0.65-0.26-0.95-0.53q0-0.11 0-0.22-0.21 0-0.43 0c-0.29-0.25-0.29-0.25-0.53-0.53q0-0.1 0-0.21c-0.15-0.02-0.15-0.02-0.3-0.05-0.33-0.06-0.33-0.06-0.55-0.16q0-0.11 0-0.22-0.62-0.25-1.27-0.42 0.26 0.72 0.58 1.42 0.27 0.58 0.52 1.17 0.05 0.12 0.1 0.25c0.08 0.27 0.09 0.49 0.07 0.77-0.31-0.1-0.31-0.1-0.42-0.28-0.05-0.11-0.05-0.11-0.09-0.22-0.2-0.42-0.42-0.67-0.76-0.98q-0.2-0.21-0.4-0.42-0.41-0.42-0.88-0.75c-0.87-0.64-1.1-1.27-1.29-2.32-0.13-0.57-0.33-0.86-0.82-1.19q0-0.11 0-0.21-0.11-0.04-0.22-0.08c-0.44-0.2-0.82-0.42-1.14-0.79-0.33-0.29-0.65-0.32-1.08-0.41 0.14 0.4 0.29 0.46 0.64 0.69 0.66 0.47 1.12 1 1.59 1.65q0.09 0.12 0.19 0.25c0.36 0.51 0.65 1.04 0.76 1.66q-0.05 0.16-0.1 0.32-0.06-0.07-0.12-0.14c-1.41-1.66-3.03-3.02-4.86-4.22q-0.1-0.06-0.19-0.12c-2.37-1.56-5.13-2.41-7.87-3.07q-0.11-0.03-0.22-0.06-2.04-0.49-4.12-0.79c0.4-0.26 0.8-0.24 1.26-0.24z"/>
	<path class="s9" d="m19.6 41.25c0.35 0.41 0.62 0.84 0.88 1.31q0.07 0.11 0.13 0.23c0.85 1.54 1.48 3.12 1.87 4.84 0.03 0.11 0.03 0.11 0.05 0.22q0.41 1.93 0.42 3.91 0 0.11 0 0.23c0 1.82-0.33 3.56-0.67 5.34q-0.24 1.28-0.32 2.58c-0.03 0.36-0.03 0.36-0.13 0.58q-0.16-0.06-0.32-0.11-0.01-0.1-0.03-0.21c-0.29-2.14-0.77-3.96-1.77-5.86q-0.25-0.47-0.48-0.95-0.07-0.15-0.15-0.31-0.06-0.11-0.11-0.22 0.08-0.04 0.16-0.09c0.34-0.24 0.55-0.41 0.64-0.83q0.02-0.52 0-1.03 0-0.17-0.01-0.35c-0.01-0.65-0.08-1.23-0.26-1.84q-0.11 0-0.22 0c-0.4-1.54-0.4-1.54-0.21-2.13 0.22-0.15 0.22-0.15 0.43-0.21q0-0.16 0-0.32 0.1 0 0.21 0c0.29-0.53 0.34-0.96 0.23-1.56-0.03-0.15-0.03-0.15-0.05-0.3-0.07-0.29-0.07-0.29-0.29-0.59-0.02-0.25-0.02-0.25-0.02-0.54 0-0.15 0-0.15 0-0.31q0.01-0.17 0.01-0.33 0-0.17 0-0.34 0.01-0.41 0.01-0.81z"/>
	<path class="s7" d="m72.98 51.84q0.15-0.01 0.31-0.01c0.96 0.01 1.87 0.21 2.58 0.9 0.59 0.78 0.68 1.48 0.74 2.44 0.01 0.14 0.01 0.14 0.02 0.27 0.05 1.02-0.22 1.97-0.88 2.76-0.92 0.93-2.09 1.21-3.38 1.23-0.97-0.02-2.04-0.03-2.83-0.66-0.3-0.37-0.35-0.69-0.39-1.15q-0.01-0.12-0.02-0.24c-0.07-0.84-0.11-1.68 0.21-2.47 0.84-0.82 1.96-1.06 3.09-1.05 0.58 0.06 1.1 0.24 1.64 0.46-0.51-0.4-1.02-0.52-1.66-0.57-0.44-0.04-0.68-0.17-0.99-0.49-0.17-0.33-0.2-0.71-0.11-1.06 0.47-0.44 1.07-0.37 1.67-0.36zm-1.8 4.26c-0.2 0.23-0.2 0.23-0.27 0.49 0.13 0.44 0.46 0.66 0.83 0.92 0.31 0.16 0.63 0.13 0.98 0.13q0.21 0.01 0.42 0.01c0.41-0.03 0.61-0.1 0.93-0.35 0.08-0.26 0.08-0.26 0-0.53-0.35-0.44-0.74-0.73-1.28-0.85-0.58-0.07-1.08-0.1-1.61 0.18z"/>
	<path class="s10" d="m24.26 68.03q0.65 0.46 1.23 0.99c2.46 2.18 6.08 2.87 9.26 2.71q1.78-0.11 3.52-0.53c0.33-0.07 0.6-0.1 0.94-0.08 0.14 0.47 0.06 0.74-0.12 1.19q-0.07 0.17-0.14 0.34-0.2 0.45-0.44 0.88-0.08 0.13-0.15 0.26c-0.05 0.1-0.05 0.1-0.11 0.2q-1.99 0.02-3.99 0.04-0.92 0-1.85 0.01-0.89 0.02-1.78 0.02-0.35 0-0.69 0.01-0.47 0-0.95 0-0.14 0.01-0.29 0.01c-0.37 0-0.62-0.01-0.92-0.25q-0.24-0.28-0.44-0.59-0.09-0.12-0.17-0.25-0.07-0.11-0.14-0.22-0.07-0.13-0.15-0.26-0.07-0.13-0.15-0.27-0.17-0.28-0.34-0.57-0.08-0.14-0.16-0.28-0.36-0.6-0.73-1.18-0.06-0.11-0.13-0.21-0.29-0.47-0.59-0.94-0.11-0.16-0.21-0.32-0.09-0.14-0.18-0.28c-0.13-0.21-0.13-0.21-0.13-0.43z"/>
	<path class="s11" d="m27.16 65.01q0.45 0.08 0.9 0.15 0.31 0.05 0.61 0.1 0.14 0.02 0.29 0.04c0.66 0.12 0.66 0.12 0.91 0.43q0.06 0.14 0.12 0.28c0.42 0.64 0.78 1.14 1.53 1.34 0.28 0.05 0.28 0.05 0.59 0.07 0.34 0.04 0.63 0.07 0.95 0.19 0.19 0.26 0.29 0.51 0.41 0.81 0.13 0.28 0.21 0.35 0.48 0.47q0.5 0.14 1.02 0.21 0 0.15 0 0.32 1.35 0 2.75 0c-1.49 0.99-4.31 1.06-6.01 0.73-1.94-0.46-3.83-1.65-5.55-2.62q-1.13-0.62-2.3-1.16-0.88-0.4-1.71-0.89 0-0.1 0-0.21 0.24-0.1 0.49-0.21 0.13-0.05 0.27-0.11c1.36-0.48 2.87-0.18 4.25 0.06z"/>
	<path class="s12" d="m52.13 18.5c0.36 0.14 0.5 0.28 0.66 0.63q0.06 0.11 0.11 0.22c0.08 0.21 0.08 0.21 0.08 0.53q-0.31 0.05-0.64 0.11c0.06 0.45 0.23 0.74 0.48 1.12 0.41 0.61 0.41 0.61 0.48 1q0.1 0 0.21 0c0.42 0.58 0.42 0.58 0.42 0.85q-0.52 0-1.06 0c0.14 0.52 0.32 0.99 0.54 1.48q0.14 0.31 0.21 0.65 0.1 0 0.21 0c0.82 1.15 1.13 2.35 1.34 3.73 0.03 0.23 0.03 0.23 0.15 0.53 0.15 0.65 0.1 1.28 0.07 1.94q-0.01 0.2-0.01 0.41c-0.04 1.01-0.04 1.01-0.28 1.25-0.3 0.03-0.3 0.03-0.65 0.02q-0.17-0.01-0.35-0.01-0.13 0-0.27-0.01c-0.27 1.86-0.27 1.86-0.43 3.72-0.05-0.1-0.05-0.1-0.1-0.21q-0.16-0.05-0.32-0.1c-0.2-0.46-0.24-0.88-0.26-1.37-0.03-0.43-0.06-0.83-0.17-1.24-0.17-0.64-0.17-0.64-0.1-1.01q0.27-0.29 0.57-0.55c0.27-0.3 0.29-0.55 0.28-0.94q-0.05-0.11-0.11-0.24c-0.13-0.37-0.12-0.68-0.12-1.08q0-0.11 0.01-0.23 0-0.47 0.01-0.95 0.01-0.35 0.01-0.7 0-0.21 0.01-0.43c-0.03-0.52-0.11-1.02-0.36-1.49-0.13-0.28-0.07-0.48-0.01-0.78 0.08-0.77-0.18-1.28-0.5-1.96-0.27-0.65-0.49-1.2-0.43-1.92q0.02-0.14 0.03-0.28 0.04-0.39 0.08-0.78-0.1 0-0.21 0c-0.17-0.44-0.24-0.8-0.21-1.28 0.36-0.05 0.36-0.05 0.74-0.1q-0.05-0.26-0.11-0.53z"/>
	<path class="s7" d="m49.48 50.07c0.48 0.51 0.55 0.89 0.55 1.57q0 0.11 0 0.22 0 0.36 0 0.72 0.01 0.25 0.01 0.51 0 0.52 0 1.05 0 0.67 0 1.35 0.01 0.52 0.01 1.04 0 0.24 0 0.49 0 0.35 0 0.7 0 0.2 0 0.4c-0.05 0.48-0.23 0.75-0.57 1.09-0.46 0.13-0.91 0.16-1.37-0.01-0.4-0.25-0.42-0.39-0.53-0.84-0.03-0.3-0.03-0.3-0.03-0.61q0-0.18 0-0.36 0.01-0.19 0.01-0.38 0-0.2 0-0.4 0-0.52 0.01-1.05 0-0.73 0.01-1.46 0-0.39 0-0.78 0.02-0.79-0.06-1.56c-0.06-0.49-0.01-0.66 0.27-1.05 0.5-0.52 0.95-0.9 1.69-0.64z"/>
	<path class="s13" d="m53.72 17.43c3.4 4.13 4.43 10.05 3.98 15.25-0.31 2.81-1.37 5.41-2.81 7.82-0.12-0.35-0.12-0.41 0.04-0.77 0.09-0.14 0.09-0.14 0.17-0.29q0.1 0 0.21 0c0.17-1.01 0.11-1.8-0.21-2.77q-0.01-0.21-0.01-0.42 0-0.12 0-0.25 0-0.12 0-0.25c0-0.13 0-0.13 0-0.26q0.01-0.31 0.01-0.62 0.16-0.05 0.32-0.11c0.04-0.1 0.04-0.1 0.08-0.2 0.19-0.33 0.42-0.41 0.76-0.54 0.31-0.02 0.31-0.02 0.53 0q0.01-0.2 0.02-0.39 0-0.11 0.01-0.23c-0.01-0.24-0.01-0.24-0.14-0.47-0.14-0.44-0.07-0.83 0-1.28q0.01-0.14 0.03-0.27 0.04-0.33 0.08-0.66c0.16-0.05 0.16-0.05 0.32-0.1q-0.01-0.2-0.02-0.41-0.01-0.11-0.02-0.23c-0.05-0.23-0.05-0.23-0.26-0.36-0.3-0.23-0.37-0.44-0.5-0.78q-0.06-0.17-0.13-0.34c-0.06-0.16-0.06-0.16-0.13-0.33q-0.05-0.13-0.1-0.26c-0.13-0.32-0.21-0.56-0.21-0.91q0.1 0 0.21 0 0-0.1 0-0.21c0.36-0.05 0.36-0.05 0.74-0.11q-0.05-0.51-0.09-1.01c-0.02-0.15-0.02-0.15-0.03-0.29-0.06-0.68-0.2-1.26-0.42-1.9q-0.13-0.41-0.2-0.84-0.06-0.15-0.11-0.32-0.1 0-0.21 0-0.05-0.47-0.11-0.95c-0.15-0.06-0.15-0.06-0.31-0.11-0.19-0.38-0.35-0.75-0.43-1.17q-0.1 0-0.21 0-0.1-0.27-0.21-0.55c-0.05-0.15-0.05-0.15-0.11-0.31q-0.14-0.41-0.21-0.84-0.16-0.05-0.32-0.11c-0.12-0.61-0.12-0.61 0-0.85z"/>
	<path class="s14" d="m24.26 68.03q0.65 0.46 1.23 0.99c1.19 1.06 2.72 1.77 4.25 2.14 0.39 0.12 0.45 0.16 0.72 0.49 0.2 0.42 0.25 0.88 0.3 1.34 0.05 0.27 0.05 0.27 0.26 0.38q0.12 0.04 0.24 0.09 0.12 0.04 0.25 0.09c0.12 0.04 0.12 0.04 0.25 0.08q0.13 0.04 0.26 0.08 0.09 0.03 0.19 0.07 0 0.1 0 0.21-0.89 0.03-1.77 0.04-0.31 0-0.61 0.01-0.43 0.02-0.87 0.02-0.13 0.01-0.27 0.01c-0.37 0-0.61 0-0.91-0.24q-0.24-0.28-0.44-0.59-0.09-0.12-0.17-0.25-0.07-0.11-0.14-0.22-0.07-0.13-0.15-0.26-0.07-0.13-0.15-0.27-0.17-0.28-0.34-0.57-0.08-0.14-0.16-0.28-0.36-0.6-0.73-1.18-0.06-0.11-0.13-0.21-0.29-0.47-0.59-0.94-0.11-0.16-0.21-0.32-0.09-0.14-0.18-0.28c-0.13-0.21-0.13-0.21-0.13-0.43z"/>
	<path class="s15" d="m63.66 65.39q0.17 0.05 0.34 0.09 0.16-0.1 0.32-0.21c0.25-0.02 0.25-0.02 0.54-0.02q0.14 0 0.28 0c0.18 0 0.18 0 0.36 0.01q0.57 0 1.15 0.01 0 1.41 0 2.87 0.21 0.05 0.42 0.11 0 0.15 0 0.32-0.99 0-2.01 0 0-0.16 0-0.32 0.21-0.06 0.42-0.11c-0.05-1.1-0.05-1.1-0.1-2.23q-0.11-0.05-0.21-0.11-0.06 0.16-0.11 0.32-0.26 0-0.53 0-0.05-0.16-0.11-0.32-0.1 0-0.21 0c0.04 0.17 0.04 0.17 0.07 0.34 0.04 0.41 0.04 0.41-0.08 0.71-0.29 0.34-0.59 0.42-1.03 0.48q-0.31 0.01-0.62 0.03c-0.12 0.02-0.12 0.02-0.25 0.04q-0.05 0.1-0.1 0.21 0.16 0.01 0.32 0.01 0.22 0.01 0.43 0.02 0.11 0.01 0.22 0.01c0.49 0.03 0.84 0.13 1.25 0.38 0.17 0.35 0.17 0.7 0.11 1.07-0.41 0.49-0.98 0.6-1.59 0.66-0.65 0.02-1.26-0.09-1.8-0.45-0.02-0.28-0.02-0.28 0-0.53q0.21-0.11 0.42-0.21-0.08-0.09-0.16-0.18c-0.2-0.33-0.22-0.5-0.15-0.89 0.26-0.25 0.26-0.25 0.52-0.42q-0.07-0.06-0.15-0.12c-0.23-0.28-0.25-0.48-0.27-0.84 0.15-0.4 0.29-0.51 0.66-0.72 0.6-0.19 1.04-0.19 1.65-0.01zm-0.93 0.31c-0.23 0.18-0.23 0.18-0.23 0.42 0 0.11 0 0.11 0 0.23q0.01 0.2 0.02 0.41 0.26 0.06 0.53 0.11c0.2-0.21 0.12-0.49 0.12-0.76-0.01-0.21-0.01-0.21-0.12-0.41q-0.16 0-0.32 0zm-0.85 3.19q0.05 0.15 0.11 0.31c0.38 0.17 0.86 0.15 1.27 0.11 0.25-0.09 0.25-0.09 0.42-0.21q0-0.16 0-0.32c-0.26-0.13-0.49-0.15-0.78-0.19q-0.15-0.02-0.31-0.04c-0.34 0.02-0.46 0.11-0.71 0.34z"/>
	<path class="s16" d="m52.13 65.27q0.05 0.26 0.11 0.53c0.1-0.1 0.1-0.1 0.2-0.21 0.46-0.3 0.85-0.3 1.39-0.21 0.33 0.21 0.33 0.21 0.53 0.42q0.07-0.07 0.14-0.15c0.35-0.33 0.76-0.31 1.21-0.3 0.36 0.04 0.53 0.19 0.77 0.45 0.1 0.3 0.12 0.57 0.11 0.89q0 0.12 0 0.25c0 0.14 0 0.14 0 0.27q0 0.13 0 0.27 0 0.33-0.01 0.66 0.21 0.05 0.43 0.11 0 0.15 0 0.32-0.99 0-2.02 0 0-0.16 0-0.32 0.16-0.06 0.32-0.11 0-1.1 0-2.23c-0.62 0.12-0.62 0.12-0.74 0.41q-0.02 0.12-0.04 0.24c-0.02 0.13-0.02 0.13-0.04 0.26-0.08 0.68-0.08 0.68 0.08 1.32q0.16 0.05 0.32 0.11 0 0.15 0 0.32-0.99 0-2.02 0 0-0.16 0-0.32 0.11-0.06 0.22-0.11c0.11-0.34 0.12-0.59 0.12-0.94q0-0.17 0-0.33-0.02-0.44-0.12-0.86-0.26 0-0.53 0c-0.22 0.45-0.26 0.88-0.28 1.37-0.01 0.11-0.01 0.11-0.01 0.22q-0.02 0.27-0.03 0.54 0.21 0.05 0.42 0.11 0 0.15 0 0.32-0.99 0-2.01 0 0-0.16 0-0.32 0.21-0.06 0.42-0.11-0.05-1.1-0.1-2.23-0.16-0.05-0.32-0.11 0-0.21 0-0.42 0.31-0.03 0.62-0.06c0.17-0.01 0.17-0.01 0.35-0.03q0.26-0.02 0.51-0.02z"/>
	<path class="s17" d="m14.62 8.08c0.06 0.34 0.06 0.56-0.14 0.84q-0.09 0.11-0.19 0.23c-0.42 0.52-0.76 1.07-1.09 1.65q-0.09 0.15-0.18 0.31c-0.81 1.39-1.48 2.82-2.11 4.3q-0.2 0-0.42 0 0 0.11 0 0.22c-0.17 0.02-0.17 0.02-0.34 0.04q-0.47 0.07-0.93 0.17c-0.05-0.69 0.18-1.21 0.48-1.82 0.16-0.38 0.23-0.76 0.31-1.16 0.11-0.58 0.23-0.92 0.59-1.38q0.03-0.15 0.07-0.3c0.22-0.53 0.63-0.87 1.09-1.19q0.14-0.02 0.28-0.04 0.13-0.03 0.25-0.06 0.05-0.12 0.1-0.25c0.16-0.4 0.4-0.5 0.78-0.72 0.54-0.31 0.54-0.31 1.07-0.65 0.28-0.19 0.28-0.19 0.38-0.19z"/>
	<path class="s18" d="m52.98 38.69q0.16 0.11 0.32 0.22 0.26 0.06 0.53 0.1 0 0.27 0 0.54-0.13 0.01-0.26 0.03-0.17 0.03-0.34 0.06-0.16 0.02-0.33 0.05-0.5 0.1-0.98 0.28 0 0.11 0 0.22 0.01 0.51 0.01 1.02c0.01 0.17 0.01 0.17 0.01 0.35 0 0.58-0.01 1.05-0.23 1.6 0.03 0.41 0.13 0.7 0.32 1.06q-0.89 1.13-1.91 2.13-0.21 0.21-0.42 0.42 0-0.15 0-0.32-0.11 0-0.22 0c-0.01-0.44-0.02-0.76 0.11-1.19 0.12-0.45 0.14-0.86 0.15-1.32 0.03-0.79 0.14-1.51 0.38-2.27 0.05-0.16 0.05-0.16 0.09-0.33 0.25-0.79 0.25-0.79 0.65-1.03q0.16-0.06 0.32-0.13c0.24-0.31 0.41-0.62 0.59-0.97 0.32-0.64 0.5-0.68 1.21-0.52z"/>
	<path class="s19" d="m34.86 4.78c0.57-0.03 0.92 0.05 1.42 0.31 0.52 0.25 0.99 0.43 1.55 0.54q0 0.11 0 0.22 0.31 0 0.63 0c0.06 0.1 0.06 0.1 0.11 0.21 0.45 0.25 0.88 0.4 1.38 0.53q0.34 0.11 0.69 0.23 0.28 0.1 0.56 0.19c0.59 0.19 1.02 0.35 1.4 0.86q0 0.15 0 0.32 0.1 0 0.21 0c0.1 0.21 0.1 0.21 0.21 0.42-0.26-0.11-0.42-0.21-0.61-0.42-0.34-0.31-0.64-0.34-1.09-0.43 0.14 0.4 0.29 0.46 0.64 0.69 0.66 0.47 1.12 1 1.59 1.65q0.09 0.12 0.19 0.25c0.36 0.51 0.65 1.04 0.76 1.66-0.05 0.16-0.05 0.16-0.1 0.32q-0.06-0.07-0.12-0.14c-1.86-2.19-4.26-4.19-6.89-5.38-0.2-0.11-0.2-0.11-0.28-0.36-0.19-0.42-0.51-0.56-0.9-0.78q-0.11-0.06-0.22-0.12-0.3-0.17-0.6-0.34-0.27-0.15-0.53-0.32 0-0.05 0-0.11z"/>
	<path class="s20" d="m16.64 37.53c2.97 2.89 2.97 2.89 3 4.16q0 0.17 0.01 0.33 0.01 0.34 0.01 0.68 0.01 0.16 0.01 0.33c0.01 0.15 0.01 0.15 0.01 0.3 0.01 0.28 0.01 0.28 0.24 0.57 0.07 0.27 0.07 0.27 0.13 0.57q0.02 0.15 0.05 0.31c0.04 0.42 0 0.71-0.23 1.07q-0.08 0.09-0.16 0.18-0.11 0-0.21 0 0 0.16 0 0.32c-0.16 0.1-0.16 0.1-0.32 0.21-0.15 0.65-0.07 1.07 0.1 1.7q0 0.21 0 0.43 0.11 0 0.22 0c0.33 0.74 0.37 1.39 0.37 2.2q0 0.17 0.01 0.36c0 0.85 0 0.85-0.31 1.29-0.29 0.19-0.29 0.19-0.71 0.19-0.2-0.26-0.2-0.26-0.4-0.59-0.09-0.16-0.09-0.16-0.19-0.33q-0.08-0.12-0.15-0.25c0.11 0 0.11 0 0.22 0q0.14 0 0.29 0c0.14 0.01 0.14 0.01 0.29 0.01 0.27 0 0.27 0 0.58-0.12 0.07-0.21 0.07-0.21 0.1-0.42-0.15-0.06-0.15-0.06-0.32-0.11-0.56-0.61-0.6-1.38-0.67-2.16-0.03-0.45-0.09-0.85-0.24-1.28-0.22-0.64-0.33-1.45-0.05-2.09 0.28-0.37 0.65-0.57 1.07-0.74q0.11 0 0.21 0-0.02-0.12-0.04-0.24c-0.11-0.53-0.18-1.02-0.17-1.57q-0.05-0.16-0.11-0.32-0.1 0-0.21 0c0-0.1 0-0.1 0-0.21-0.04-1.05-0.42-1.82-1.16-2.55-0.57-0.71-0.99-1.37-1.27-2.23z"/>
	<path class="s21" d="m47.79 78.13q0.7-0.01 1.4-0.01 0.24-0.01 0.48-0.01c1.93-0.03 1.93-0.03 2.57 0.53 0.15 0.35 0.15 0.6 0.1 0.98-0.2 0.4-0.44 0.57-0.84 0.73-0.6 0.17-1.18 0.14-1.8 0.12q0.05 0.63 0.1 1.28 0.26 0.05 0.53 0.1 0 0.21 0 0.43-1.25 0-2.54 0 0-0.21 0-0.43 0.26 0 0.53 0 0-1.62 0-3.29-0.26-0.05-0.53-0.11 0-0.15 0-0.32zm1.91 0.43q0 0.73 0 1.49c0.69 0.06 0.69 0.06 1.05-0.18 0.24-0.23 0.24-0.23 0.27-0.57-0.06-0.36-0.1-0.5-0.37-0.74-0.49-0.13-0.49-0.13-0.95 0z"/>
	<path class="s22" d="m39.97 64.29c0.14 0 0.14 0 0.28 0q0.14 0 0.28 0c0.28 0.03 0.45 0.09 0.69 0.24 0.23 0.47 0.2 0.98 0.04 1.48-0.44 1.1-1.11 2.58-2.16 3.19-0.24 0.02-0.24 0.02-0.48-0.02-0.12-0.01-0.12-0.01-0.24-0.03-0.24-0.05-0.44-0.14-0.66-0.26-0.04-0.48 0.06-0.68 0.36-1.05q0.1-0.12 0.2-0.25 0.09-0.1 0.18-0.19 0.11 0 0.22 0c-0.02-0.26-0.02-0.26-0.11-0.53-0.26-0.18-0.26-0.18-0.53-0.32q-0.05-0.16-0.11-0.32 0.84-0.35 1.7-0.64c0.16-0.16 0.14-0.32 0.16-0.54q0.03-0.2 0.05-0.42-0.16-0.05-0.32-0.1c0.22-0.22 0.22-0.22 0.45-0.24z"/>
	<path class="s23" d="m48.58 44.71c0.39 0.24 0.61 0.47 0.8 0.89 0.08 0.53 0.05 0.94-0.16 1.43-0.52 0.54-1.01 0.73-1.75 0.77-0.57-0.02-0.89-0.17-1.32-0.53-0.41-0.45-0.43-0.89-0.42-1.49 0.07-0.46 0.22-0.61 0.57-0.92 0.66-0.47 1.55-0.47 2.28-0.15z"/>
	<path class="s24" d="m26.07 64.95q1.28 0.06 2.55 0.29c0.15 0.03 0.15 0.03 0.3 0.05 0.7 0.13 0.7 0.13 0.95 0.44q0.06 0.14 0.12 0.28c0.42 0.64 0.78 1.14 1.53 1.34 0.28 0.05 0.28 0.05 0.59 0.07 0.34 0.04 0.63 0.07 0.95 0.19 0.19 0.26 0.29 0.51 0.41 0.81 0.13 0.28 0.21 0.35 0.48 0.47q0.5 0.14 1.02 0.21 0 0.15 0 0.32 1.35 0 2.75 0c-0.52 0.35-1 0.33-1.62 0.32q-0.2 0-0.4 0-0.15 0-0.31 0 0-0.11 0-0.22c-0.15 0.01-0.15 0.01-0.3 0.01-1.29 0.03-1.29 0.03-1.92-0.33q-0.2-0.09-0.4-0.18-0.69-0.37-1.34-0.81c-0.51-0.33-0.51-0.33-1.05-0.59-0.32-0.13-0.6-0.3-0.89-0.49q-0.28-0.18-0.56-0.35-0.16-0.1-0.32-0.2-0.15-0.09-0.31-0.19-0.11-0.08-0.22-0.16 0-0.11 0-0.22c-0.34-0.11-0.62-0.13-0.97-0.16q-0.18-0.01-0.35-0.03-0.13-0.01-0.27-0.02 0-0.1 0-0.21-0.16 0-0.32 0-0.05-0.31-0.1-0.64z"/>
	<path class="s25" d="m59.44 78.98q0.06 0.21 0.11 0.43c0.09-0.08 0.09-0.08 0.18-0.16 0.43-0.28 0.91-0.23 1.41-0.16 0.28 0.19 0.38 0.3 0.48 0.62q0.07 0.34 0.06 0.69 0 0.13 0 0.26c0 0.13 0 0.13 0 0.26q-0.01 0.14-0.01 0.27 0 0.33 0 0.66 0.21 0.06 0.42 0.11 0 0.16 0 0.32-0.99 0-2.01 0 0-0.16 0-0.32 0.16-0.1 0.32-0.21c0.04-0.23 0.04-0.23 0.03-0.49q0-0.14 0-0.29-0.01-0.15-0.01-0.3 0-0.15-0.01-0.3 0-0.38-0.01-0.75-0.32 0.1-0.64 0.21c-0.17 0.36-0.14 0.75-0.16 1.13q-0.01 0.13-0.02 0.26-0.01 0.32-0.03 0.63 0.16 0.06 0.32 0.11 0 0.16 0 0.32-0.99 0-2.02 0 0-0.16 0-0.32 0.21-0.1 0.43-0.21 0-1.05 0-2.13-0.21-0.05-0.43-0.1 0-0.21 0-0.43 0.28-0.03 0.56-0.05 0.15-0.02 0.31-0.03 0.36-0.03 0.72-0.03z"/>
	<path class="s26" d="m68.77 65.27q0.05 0.21 0.1 0.43 0.1-0.08 0.2-0.16c0.47-0.23 0.89-0.24 1.39-0.16 0.28 0.2 0.38 0.34 0.53 0.63q0.03 0.24 0.04 0.47 0 0.13 0.01 0.27 0.01 0.14 0.01 0.29 0.01 0.14 0.02 0.29 0.01 0.35 0.03 0.7 0.21 0.11 0.42 0.22 0 0.15 0 0.32-0.99 0-2.01 0 0-0.16 0-0.32 0.1-0.06 0.21-0.11 0-1.05 0-2.13-0.26 0-0.53 0c-0.17 0.47-0.24 0.86-0.24 1.36q-0.01 0.18-0.01 0.36 0.02 0.15 0.04 0.3 0.16 0.11 0.32 0.22 0 0.15 0 0.32-0.99 0-2.02 0 0-0.16 0-0.32 0.21-0.06 0.43-0.11-0.05-1.1-0.11-2.23-0.15-0.05-0.32-0.11 0-0.21 0-0.42 0.32-0.03 0.63-0.06c0.17-0.01 0.17-0.01 0.35-0.03q0.25-0.02 0.51-0.02z"/>
	<path class="s27" d="m60.19 65.59c0.36 0.34 0.36 0.68 0.38 1.14q0 0.13 0.01 0.27c0 0.13 0 0.13 0.01 0.27q0.01 0.33 0.02 0.66 0.21 0 0.42 0c-0.03 0.25-0.03 0.25-0.1 0.53-0.39 0.26-0.71 0.27-1.17 0.21-0.32-0.16-0.32-0.16-0.53-0.32q-0.1 0.08-0.2 0.16c-0.46 0.23-0.88 0.24-1.39 0.16-0.28-0.17-0.28-0.17-0.42-0.42-0.06-0.32-0.06-0.32 0-0.64 0.45-0.62 1.13-0.88 1.86-1.04 0.13-0.01 0.13-0.01 0.26-0.02q-0.11-0.32-0.21-0.64-0.27-0.06-0.53-0.11c-0.14 0.12-0.14 0.12-0.12 0.38q0.01 0.13 0.01 0.26c-0.23 0.13-0.23 0.13-0.53 0.21-0.3-0.14-0.3-0.14-0.53-0.32 0.02-0.3 0.02-0.3 0.11-0.63 0.77-0.62 1.81-0.58 2.65-0.11zm-1.81 1.81c-0.12 0.21-0.12 0.21-0.1 0.42 0.19 0.24 0.19 0.24 0.47 0.26 0.29-0.02 0.29-0.02 0.46-0.28 0.13-0.3 0.16-0.5 0.13-0.83-0.37 0-0.67 0.21-0.96 0.43z"/>
	<path class="s28" d="m28.31 3.69q0.12 0 0.25 0 0.27 0 0.54 0 0.41 0 0.81 0c1.1 0 2.17 0.08 3.26 0.24q0 0.11 0 0.22 0.12 0 0.25 0.01c0.64 0.04 1.08 0.11 1.65 0.41q0.48 0.08 0.96 0.11c0.05 0.16 0.05 0.16 0.1 0.32q-0.57-0.06-1.16-0.11 0.16 0.1 0.33 0.2c0.86 0.52 0.86 0.52 1.06 0.64q0.25 0.15 0.51 0.29c0.22 0.15 0.22 0.15 0.3 0.38q0.01 0.09 0.02 0.19c-0.37-0.06-0.69-0.16-1.03-0.31-2.9-1.22-6.03-1.92-9.14-2.35 0.4-0.26 0.82-0.24 1.29-0.24z"/>
	<path class="s29" d="m74.3 65.4c0.33 0.21 0.52 0.38 0.72 0.72q0.05 0.42 0.11 0.85-1 0-2.02 0 0.11 0.58 0.21 1.17c0.6 0.06 0.6 0.06 1.11-0.2 0.17-0.21 0.17-0.21 0.27-0.44q0.21 0 0.43 0c-0.03 0.42-0.06 0.59-0.37 0.89-0.56 0.37-1.09 0.33-1.75 0.28-0.46-0.16-0.75-0.37-1.06-0.74-0.22-0.64-0.21-1.35 0.05-1.97 0.66-0.66 1.4-0.89 2.3-0.56zm-0.98 0.3c-0.24 0.2-0.24 0.2-0.22 0.54q0.01 0.15 0.01 0.31 0.42 0 0.85 0-0.05-0.37-0.11-0.75c-0.25-0.07-0.25-0.07-0.53-0.1z"/>
	<path class="s30" d="m47.79 64.42q1.25 0 2.54 0 0 0.21 0 0.43-0.26 0.05-0.53 0.1 0 1.52 0 3.08 0.26 0.11 0.53 0.22 0 0.15 0 0.32-1.25 0-2.54 0 0-0.16 0-0.32c0.26-0.06 0.26-0.06 0.53-0.11q0-1.62 0-3.29-0.26 0-0.53 0 0-0.21 0-0.43z"/>
	<path class="s31" d="m63.47 77.92q0.21 0 0.42 0 0 0.58 0 1.17 0.47 0 0.96 0 0 0.21 0 0.43-0.47 0-0.96 0 0.06 0.99 0.11 2.02 0.21 0 0.42 0 0.06-0.21 0.11-0.43 0.21 0 0.42 0c0.06 0.68 0.06 0.68-0.2 1-0.44 0.34-0.84 0.33-1.39 0.28-0.31-0.14-0.31-0.14-0.53-0.32-0.1-0.32-0.11-0.52-0.11-0.84q0-0.15 0-0.3 0-0.16 0-0.32 0-0.16 0-0.32 0.01-0.39 0.01-0.77-0.26 0-0.53 0 0-0.21 0-0.43 0.14-0.06 0.29-0.13c0.47-0.26 0.69-0.6 0.98-1.04z"/>
	<path class="s32" d="m51.5 71.54q0 0.37 0 0.75c-0.18-0.06-0.18-0.06-0.37-0.11-0.62-0.15-1.18-0.19-1.79 0.01-0.35 0.25-0.46 0.43-0.6 0.84-0.08 0.57-0.01 1.01 0.32 1.49 0.47 0.33 0.92 0.4 1.48 0.32q0.38-0.14 0.74-0.32 0.16 0 0.32 0 0 0.37 0 0.74c-0.88 0.29-1.95 0.44-2.82 0.04-0.47-0.29-0.81-0.67-0.99-1.21-0.06-0.66-0.08-1.25 0.32-1.8 0.84-0.87 2.23-1.33 3.39-0.75z"/>
	<path class="s33" d="m53.93 78.98q0.06 0.21 0.11 0.43 0.08-0.08 0.16-0.16c0.4-0.24 0.65-0.22 1.11-0.16 0.23 0.23 0.23 0.23 0.32 0.53-0.05 0.29-0.05 0.29-0.21 0.53-0.31 0.1-0.31 0.1-0.64 0.11q-0.16-0.11-0.32-0.21 0-0.16 0-0.32-0.1 0-0.21 0c-0.09 0.46-0.12 0.9-0.11 1.37q0 0.18 0 0.37 0 0.14 0.01 0.28 0.26 0.1 0.53 0.21 0 0.16 0 0.32-1.1 0-2.23 0 0-0.16 0-0.32 0.21-0.05 0.42-0.11 0-1.15 0-2.33-0.2 0-0.42 0 0-0.21 0-0.43 0.28-0.03 0.56-0.05 0.16-0.02 0.32-0.03c0.29-0.03 0.29-0.03 0.6-0.03z"/>
	<path class="s34" d="m28.93 75.16c2.79 0 5.59 0 8.47 0 0.06 0.26 0.06 0.26 0.11 0.53-0.18 0.18-0.41 0.12-0.66 0.12-0.12 0-0.12 0-0.24 0q-0.12 0-0.25 0-0.41 0-0.82 0-0.29-0.01-0.57-0.01-0.75 0-1.5 0-0.77 0-1.53 0-1.51 0-3.01-0.01 0-0.31 0-0.63z"/>
	<path class="s35" d="m28.4 74.41c3.18 0 6.36 0 9.64 0q0 0.26 0 0.53c-3.18 0-6.36 0-9.64 0q0-0.26 0-0.53z"/>
	<path class="s36" d="m30.2 71.44q1.17 0.1 2.33 0.32 0.04 0.13 0.07 0.27c0.12 0.32 0.21 0.46 0.42 0.71 0.25 0.29 0.25 0.29 0.25 0.5q0.1 0.04 0.21 0.08c0.11 0.07 0.11 0.07 0.22 0.14 0.05 0.26 0.05 0.26 0.1 0.53q-0.78 0-1.59 0 0-0.11 0-0.21-0.16-0.02-0.33-0.03c-0.48-0.1-0.69-0.16-1.05-0.51q-0.19-0.51-0.33-1.05c-0.08-0.28-0.16-0.5-0.3-0.75z"/>
	<path class="s37" d="m39.21 71.12c0.14 0.48 0.05 0.76-0.14 1.23-0.08 0.17-0.08 0.17-0.15 0.36q-0.16 0.38-0.35 0.75c-0.65 0.06-1.09 0-1.63-0.38-0.24-0.21-0.37-0.38-0.49-0.69-0.02-0.4-0.02-0.4 0-0.74 0.13-0.03 0.13-0.03 0.27-0.06q0.18-0.04 0.37-0.09 0.18-0.04 0.38-0.08 0.42-0.1 0.83-0.22c0.32-0.07 0.58-0.1 0.91-0.08z"/>
	<path class="s32" d="m55.95 72.61c0.3 0.23 0.46 0.4 0.63 0.74q0 0.42 0 0.85c-0.84 0.05-0.84 0.05-1.69 0.11 0.16 0.42 0.16 0.42 0.42 0.53q0.3 0.01 0.6 0 0.16 0 0.32 0c0.12 0 0.12 0 0.25 0q-0.11 0.31-0.22 0.64-0.3 0.01-0.6 0.02c-0.17 0-0.17 0-0.34 0.01-0.49-0.05-0.86-0.29-1.17-0.67-0.17-0.49-0.21-1-0.03-1.5 0.41-0.77 1.01-0.87 1.83-0.73zm-1.06 0.63q-0.05 0.21-0.11 0.43 0.58 0 1.17 0-0.11-0.26-0.21-0.53c-0.4-0.16-0.49-0.14-0.85 0.1z"/>
	<path class="s38" d="m63.58 72.61c0.35 0.26 0.49 0.43 0.63 0.85q0 0.36 0 0.74c-0.84 0.05-0.84 0.05-1.69 0.11 0.16 0.42 0.16 0.42 0.42 0.53q0.3 0.01 0.6 0 0.16 0 0.32 0c0.12 0 0.12 0 0.25 0q-0.11 0.31-0.22 0.64c-1.34 0.11-1.34 0.11-1.82-0.3-0.33-0.34-0.42-0.65-0.43-1.11 0-0.53 0.14-0.82 0.45-1.25 0.46-0.3 0.96-0.3 1.49-0.21zm-0.99 0.61c-0.2 0.22-0.2 0.22-0.18 0.45q0.57 0 1.17 0c-0.15-0.54-0.15-0.54-0.47-0.65-0.29-0.02-0.29-0.02-0.52 0.2z"/>
	<path class="s31" d="m57.32 78.98q0 1.42 0 2.87 0.16 0.06 0.32 0.11 0 0.16 0 0.32-0.99 0-2.01 0 0-0.16 0-0.32 0.21-0.05 0.42-0.11 0-1.15 0-2.33-0.21 0-0.42 0 0-0.21 0-0.43 0.27-0.03 0.55-0.05 0.15-0.02 0.31-0.03 0.42-0.03 0.83-0.03z"/>
	<path class="s32" d="m58.7 72.61c0.34 0.23 0.4 0.35 0.53 0.74q0.02 0.25 0.04 0.5 0 0.14 0.01 0.28 0 0.15 0.01 0.3 0.01 0.15 0.02 0.31 0.01 0.37 0.03 0.74-0.59 0-1.17 0-0.2 0.01-0.42 0.02c-0.28-0.01-0.42-0.02-0.69-0.14-0.16-0.2-0.16-0.2-0.21-0.52 0.06-0.4 0.14-0.5 0.47-0.75 0.4-0.18 0.74-0.31 1.17-0.31q-0.1-0.27-0.21-0.54c-0.54-0.01-0.54-0.01-1.06 0.11 0.04-0.31 0.04-0.31 0.1-0.64 0.42-0.21 0.93-0.15 1.38-0.1zm-0.95 1.7q-0.06 0.26-0.11 0.53c0.13 0.15 0.13 0.15 0.49 0.11 0.18 0 0.18 0 0.36-0.01q0-0.31 0-0.63-0.37 0-0.74 0z"/>
	<path class="s39" d="m49.17 12.65c0.49 0.38 0.49 0.38 0.63 0.53q0 0.16 0 0.32 0.09 0.04 0.19 0.07c0.3 0.18 0.45 0.4 0.66 0.67 0.14 0.11 0.14 0.11 0.29 0.22q0.12 0.11 0.24 0.21 0 0.21 0 0.43c-0.17-0.01-0.17-0.01-0.35-0.02-0.38-0.02-0.38-0.02-0.59 0.16-0.13 0.18-0.13 0.18-0.23 0.39-0.58-0.34-0.89-0.74-1.27-1.28-0.08-0.1-0.08-0.1-0.16-0.2-0.22-0.29-0.36-0.49-0.4-0.86q0.02-0.1 0.03-0.21c0.36-0.16 0.55-0.22 0.96-0.22q0-0.1 0-0.21z"/>
	<path class="s40" d="m29.46 76.01c2.44 0 4.89 0 7.41 0q0 0.26 0 0.53c-2.44 0-4.89 0-7.41 0q0-0.26 0-0.53z"/>
	<path class="s41" d="m29.99 76.75c2.09 0 4.19 0 6.35 0q0 0.26 0 0.53c-2.09 0-4.19 0-6.35 0q0-0.26 0-0.53z"/>
	<path class="s42" d="m32.53 71.76q0.27-0.01 0.55-0.02 0.15 0 0.31-0.01c0.33 0.03 0.54 0.07 0.84 0.24 0.46 0.61 0.71 1.25 0.74 2.02q-0.58 0-1.17 0-0.1-0.26-0.21-0.53-0.26-0.28-0.53-0.54c-0.53-0.53-0.53-0.53-0.54-0.92q0-0.12 0.01-0.24z"/>
	<path class="s43" d="m60.72 72.07q0 0.27 0 0.54 0.36 0 0.74 0 0 0.26 0 0.53-0.37 0-0.74 0 0 0.83 0 1.7 0.46 0 0.95 0-0.16 0.31-0.32 0.64-0.25 0.01-0.51 0.02c-0.14 0-0.14 0-0.29 0.01-0.26-0.03-0.26-0.03-0.43-0.17-0.19-0.23-0.18-0.36-0.18-0.66q0-0.13 0.01-0.27 0-0.14 0-0.28 0.01-0.14 0.01-0.29 0-0.35 0.01-0.7-0.21 0-0.42 0c0.14-0.34 0.3-0.54 0.58-0.77q0.1-0.09 0.2-0.17c0.17-0.13 0.17-0.13 0.39-0.13z"/>
	<path class="s44" d="m32.95 4.36c0.58-0.03 1.16-0.01 1.7 0.21q0.05 0.16 0.1 0.32 0.32 0.11 0.64 0.21 0.3 0.18 0.59 0.37 0.43 0.29 0.87 0.55c0.24 0.15 0.24 0.15 0.32 0.38q0.01 0.09 0.02 0.19c-0.41-0.07-0.78-0.19-1.16-0.34-0.18-0.07-0.18-0.07-0.37-0.14q-0.18-0.08-0.38-0.15-0.18-0.07-0.37-0.15-0.5-0.19-1-0.39-0.15-0.05-0.29-0.1c-0.36-0.16-0.48-0.42-0.67-0.75q0-0.1 0-0.21z"/>
	<path class="s45" d="m51.92 72.61q0.42 0 0.85 0 0 0.15 0 0.31 0.08-0.07 0.16-0.15c0.35-0.22 0.61-0.19 1-0.16q-0.05 0.36-0.1 0.74-0.12-0.03-0.23-0.06c-0.34-0.07-0.34-0.07-0.83 0.06q0.05 1.05 0.1 2.13-0.47 0-0.95 0 0-1.42 0-2.87z"/>
	<path class="s46" d="m24.26 68.03q0.66 0.47 1.25 1.01c0.52 0.46 1.12 0.79 1.72 1.12-0.08 0.51-0.08 0.51-0.31 0.72-0.22 0.13-0.22 0.13-0.43 0.13q-0.05 0.26-0.11 0.53c-0.42-0.49-0.73-1.03-1.06-1.59q-0.16-0.28-0.33-0.56-0.07-0.13-0.15-0.26-0.19-0.32-0.4-0.62c-0.18-0.26-0.18-0.26-0.18-0.48z"/>
	<path class="s47" d="m30.62 77.6q2.56 0 5.19 0 0 0.26 0 0.53-2.55 0-5.19 0 0-0.26 0-0.53z"/>
	<path class="s48" d="m19.28 45.92q0.21 0.06 0.43 0.11-0.11 0-0.21 0 0 0.16 0 0.32-0.16 0.1-0.32 0.21c-0.15 0.65-0.07 1.07 0.1 1.7q0 0.21 0 0.43 0.11 0 0.22 0c0.33 0.74 0.37 1.39 0.37 2.2q0 0.17 0.01 0.36c0 0.85 0 0.85-0.31 1.29-0.29 0.19-0.29 0.19-0.71 0.19-0.2-0.26-0.2-0.26-0.4-0.59-0.09-0.16-0.09-0.16-0.19-0.33q-0.08-0.12-0.15-0.25 0.11 0 0.22 0 0.14 0 0.29 0c0.14 0.01 0.14 0.01 0.29 0.01 0.27 0 0.27 0 0.58-0.12 0.06-1.5 0.06-1.5-0.43-2.87-0.22-0.68-0.31-1.42-0.21-2.13 0.21-0.33 0.21-0.33 0.42-0.53z"/>
	<path class="s49" d="m26.91 70.9q0 0.11 0 0.22 0.16 0.05 0.32 0.1 0 0.11 0 0.22 0.16 0.05 0.32 0.1c0.08 0.19 0.08 0.19 0.15 0.43 0.11 0.38 0.24 0.66 0.46 0.98 0.24 0.36 0.24 0.36 0.22 0.72q-0.04 0.1-0.09 0.21c-0.33-0.03-0.49-0.06-0.72-0.31q-0.09-0.13-0.17-0.27-0.1-0.14-0.19-0.29-0.09-0.15-0.19-0.3-0.09-0.14-0.19-0.28c-0.45-0.68-0.45-0.68-0.45-1.16 0.13-0.31 0.2-0.37 0.53-0.37z"/>
	<path class="s41" d="m31.15 78.35q2.04 0 4.13 0 0 0.26 0 0.53-2.03 0-4.13 0 0-0.26 0-0.53z"/>
	<path class="s50" d="m47.15 11.8c0.5 0.05 0.87 0.12 1.27 0.42q0 0.11 0 0.22 0.37 0.1 0.75 0.21 0 0.1 0 0.21-0.47 0.11-0.96 0.22 0.11 0.47 0.21 0.95-0.1 0-0.21 0 0.05 0.32 0.11 0.64c-0.3-0.3-0.39-0.66-0.53-1.04-0.21-0.6-0.21-0.6-0.5-1.17-0.14-0.24-0.14-0.24-0.14-0.66z"/>
	<path class="s51" d="m20.66 56.23c0.21 0.09 0.21 0.09 0.43 0.22 0.07 0.38 0.07 0.38 0.1 0.74q0.05 0.05 0.11 0.11 0 0.32 0 0.64 0.36 0.05 0.74 0.1-0.02 0.55-0.05 1.1c0 0.16 0 0.16-0.01 0.32q-0.01 0.15-0.01 0.31c-0.01 0.13-0.01 0.13-0.01 0.28-0.03 0.22-0.03 0.22-0.13 0.44q-0.16-0.06-0.32-0.11-0.02-0.11-0.03-0.22c-0.29-1.99-0.29-1.99-0.82-3.93z"/>
	<path class="s52" d="m12.29 9.46q0.11 0.05 0.21 0.11c-0.29 0.33-0.59 0.52-0.97 0.73-0.42 0.26-0.77 0.59-0.93 1.07-0.18 0.15-0.18 0.15-0.39 0.3q-0.44 0.31-0.81 0.69c-0.29 0.29-0.29 0.29-0.61 0.4q-0.22 0.31-0.42 0.63c0-0.66 0.48-1.16 0.92-1.6 0.1-0.1 0.1-0.1 0.19-0.19q0.1-0.1 0.2-0.19c0.78-0.76 1.63-1.48 2.61-1.95z"/>
	<path class="s41" d="m31.68 79.2q1.52 0 3.07 0 0 0.26 0 0.53-1.51 0-3.07 0 0-0.26 0-0.53z"/>
	<path class="s53" d="m34.23 71.86q0.2 0 0.42 0c0.17 0.22 0.31 0.43 0.44 0.67 0.06 0.1 0.06 0.1 0.12 0.19 0.16 0.28 0.29 0.54 0.39 0.84 0.27 0.13 0.27 0.13 0.53 0.22-0.05-0.27-0.05-0.27-0.1-0.54q0.1 0 0.21 0 0 0.11 0 0.22 0.15 0.05 0.32 0.1 0 0.21 0 0.43-0.79 0-1.59 0-0.11-0.44-0.22-0.87c-0.1-0.3-0.23-0.48-0.42-0.73-0.07-0.29-0.07-0.29-0.1-0.53z"/>
	<path class="s54" d="m51.5 71.54q0 0.37 0 0.75c-0.18-0.06-0.18-0.06-0.37-0.11q-0.93-0.25-1.86 0-0.05-0.16-0.1-0.32-0.16-0.1-0.32-0.21c0.77-0.34 1.86-0.5 2.65-0.11z"/>
	<path class="s55" d="m48.53 20.2q0.16 0 0.32 0-0.01 0.13-0.02 0.26c0.02 0.38 0.12 0.64 0.26 0.98 0.12 0.38 0.13 0.77 0.15 1.17 0.01 0.27 0.01 0.27 0.24 0.46 0.25 0.51 0.21 0.91 0.13 1.46-0.04 0.26-0.04 0.26 0.09 0.56q0.01 0.28 0.01 0.56 0 0.17-0.01 0.33 0 0.17 0 0.35 0 0.17 0 0.35 0 0.43 0 0.85-0.06 0-0.11 0-0.01-0.12-0.02-0.25c-0.2-2.16-0.4-4.33-0.99-6.42-0.05-0.24-0.05-0.24-0.05-0.66z"/>
	<path class="s56" d="m46.2 39.55c0.12 0.39 0.12 0.39 0.02 0.65-0.13 0.2-0.13 0.2-0.34 0.3-0.39 0.48-0.39 1-0.42 1.6q0.15 0.05 0.31 0.1c0.12 0.57 0.12 1.11 0.12 1.69q0 0.14 0 0.28-0.01 0.35-0.01 0.69c0.26-0.05 0.26-0.05 0.53-0.11q0-0.1 0-0.21c0.33-0.1 0.63-0.12 0.98-0.11q0.14 0 0.29 0 0.1 0 0.21 0.01 0 0.05 0 0.1-0.2 0.01-0.41 0.02c-0.58 0.06-1.01 0.31-1.49 0.62-0.18-0.17-0.31-0.31-0.43-0.53q0.04-0.52 0.09-1.04c0.05-0.57-0.05-0.9-0.3-1.41-0.12-0.55-0.19-1.03 0.1-1.52q0.14-0.21 0.27-0.41 0.07-0.1 0.14-0.21 0.17-0.26 0.34-0.51z"/>
	<path class="s57" d="m44.61 10.42q0.05 0 0.11 0 0.02 0.14 0.05 0.29 0.04 0.18 0.08 0.37 0.03 0.19 0.07 0.38c0.12 0.37 0.25 0.51 0.54 0.76q0 0.11 0 0.22 0.09 0.04 0.18 0.08c0.25 0.13 0.43 0.28 0.64 0.46q0.1 0.09 0.2 0.18 0.07 0.06 0.14 0.13c-0.32 0-0.32 0-0.57-0.21-0.28-0.22-0.45-0.28-0.8-0.32q0 0.26 0 0.53c-0.6-0.58-0.81-0.99-0.96-1.81q0.11 0 0.21 0 0.06 0.11 0.11 0.21 0-0.62 0-1.27z"/>
	<path class="s58" d="m30.73 72.61q0.41 0.09 0.83 0.2 0.11 0.02 0.23 0.05c0.37 0.09 0.64 0.17 0.95 0.38q0 0.21 0 0.43-0.21 0-0.42 0-0.05 0.16-0.11 0.32 0-0.11 0-0.21-0.16-0.02-0.33-0.03c-0.46-0.09-0.7-0.2-1.05-0.51-0.07-0.33-0.07-0.33-0.1-0.63z"/>
	<path class="s59" d="m51.18 14.14c0.99 0.96 1.76 2.05 2.54 3.19q-0.15 0.05-0.32 0.1c-0.36-0.4-0.67-0.8-0.95-1.27-0.39-0.54-0.39-0.54-0.95-0.85q0-0.21 0-0.43-0.11 0-0.22 0-0.05-0.36-0.1-0.74z"/>
	<path class="s60" d="m28.29 3.69c0.12 0 0.12 0 0.24 0.01q1.01 0.01 1.99 0.23-0.06 0.21-0.11 0.43c-0.74 0.03-1.44-0.08-2.17-0.21q-0.18-0.03-0.36-0.07-0.43-0.07-0.86-0.15c0.42-0.23 0.8-0.24 1.27-0.24z"/>
	<path class="s61" d="m16.64 37.53c0.94 0.91 1.75 1.92 2.54 2.97q-0.05 0.11-0.11 0.21c-0.66-0.33-1.09-0.77-1.52-1.37q-0.07-0.09-0.13-0.19c-0.35-0.51-0.59-1.03-0.78-1.62z"/>
	<path class="s62" d="m3.6 23.17q0.11 0 0.21 0c0.34 1.84 0.34 1.84 0 2.34q-0.15 0-0.31 0 0 0.79 0 1.6-0.06 0-0.11 0c-0.03-1.33 0.05-2.62 0.21-3.94z"/>
	<path class="s41" d="m32.21 79.94q0.99 0 2.02 0 0 0.26 0 0.53-1 0-2.02 0 0-0.26 0-0.53z"/>
	<path class="s33" d="m57.01 77.71q0.15 0.1 0.31 0.21c-0.04 0.31-0.04 0.31-0.1 0.64-0.3 0.15-0.52 0.14-0.85 0.11-0.26-0.19-0.26-0.19-0.42-0.43 0.01-0.23 0.01-0.23 0.1-0.43 0.32-0.16 0.6-0.12 0.96-0.1z"/>
	<path class="s63" d="m66.33 64q0.16 0.1 0.32 0.21c0.03 0.26 0.03 0.26 0 0.53-0.21 0.21-0.21 0.21-0.58 0.24-0.37-0.03-0.37-0.03-0.69-0.24-0.04-0.27-0.04-0.27 0-0.53 0.37-0.25 0.52-0.25 0.95-0.21z"/>
	<path class="s64" d="m49.59 31.36q0.05 0 0.11 0c0.02 0.77-0.07 1.48-0.22 2.23q-0.1 0-0.21 0c-0.02 0.18-0.02 0.18-0.04 0.37-0.06 0.38-0.06 0.38-0.17 0.48q-0.01 0.17-0.03 0.33c-0.1 0.52-0.28 0.75-0.61 1.16-0.1-0.21-0.1-0.21-0.05-0.39q0.04-0.11 0.08-0.22 0.05-0.13 0.1-0.25 0.05-0.13 0.11-0.27c0.42-1.12 0.74-2.25 0.93-3.44z"/>
	<path class="s65" d="m7.63 26.36q0.05 0 0.11 0-0.01 0.1-0.01 0.2-0.01 1.01-0.02 2.03 0 0.38-0.01 0.75 0 0.55-0.01 1.09 0 0.17 0 0.34c0 0.71 0.11 1.14 0.47 1.76 0.03 0.32 0.03 0.32 0 0.53-0.28-0.33-0.4-0.65-0.53-1.06q-0.05-0.11-0.11-0.22-0.01-0.22-0.01-0.45 0-0.14 0-0.28 0-0.16 0-0.31 0-0.16 0-0.33 0.02-2.02 0.12-4.05z"/>
	<path class="s66" d="m18.12 51.56q0.68 0 1.38 0c-0.13 0.72-0.13 0.72-0.22 0.95-0.21 0.11-0.21 0.11-0.42 0.22q-0.36-0.58-0.74-1.17z"/>
	<path class="s67" d="m12.29 9.46q0.11 0.05 0.21 0.11c-0.29 0.32-0.58 0.51-0.96 0.72-0.3 0.19-0.53 0.44-0.78 0.7-0.16 0.17-0.16 0.17-0.48 0.38-0.23-0.04-0.23-0.04-0.43-0.1 0.74-0.72 1.52-1.35 2.44-1.81z"/>
	<path class="s68" d="m73.01 51.84q0.16 0 0.32 0c0.85 0.01 0.85 0.01 1.27 0.25q-0.18 0-0.37 0-0.24-0.01-0.48-0.01-0.11 0-0.24 0-0.3 0-0.61 0.01-0.05 0.05-0.11 0.11-0.29 0.01-0.58 0-0.16 0-0.33 0-0.12 0-0.25 0-0.05 0.52-0.11 1.06c-0.27-0.27-0.25-0.48-0.27-0.85 0.06-0.21 0.06-0.21 0.26-0.4 0.5-0.2 0.97-0.18 1.5-0.17z"/>
	<path class="s69" d="m49.27 46.67q0.11 0.05 0.21 0.1c-0.02 0.26-0.07 0.4-0.25 0.58q-0.24 0.19-0.49 0.38-0.1-0.05-0.21-0.11 0 0.11 0 0.22c-0.38 0.13-0.73 0.11-1.13 0.11q-0.11 0-0.23 0-0.27 0-0.55-0.01 0-0.15 0-0.32 0.15 0.01 0.3 0.02c1.09 0.04 1.09 0.04 2.03-0.44 0.22-0.27 0.22-0.27 0.32-0.53z"/>
	<path class="s70" d="m46.94 13.61c0.21 0.1 0.21 0.1 0.42 0.21q0 0.1 0 0.21 0.16 0 0.32 0 0.11-0.21 0.21-0.42 0.14 0.3 0.27 0.6 0.07 0.17 0.15 0.34c0.11 0.32 0.14 0.53 0.11 0.86-0.31-0.1-0.31-0.1-0.42-0.28q-0.05-0.11-0.09-0.22c-0.19-0.41-0.42-0.68-0.76-0.98q-0.1-0.16-0.21-0.32z"/>
	<path class="s71" d="m62.73 74.84q0.68 0 1.38 0-0.11 0.31-0.22 0.64-0.67 0-1.37 0 0.1-0.16 0.21-0.32 0-0.16 0-0.32z"/>
	<path class="s72" d="m55.1 74.84q0.68 0 1.38 0-0.11 0.31-0.22 0.64-0.62 0-1.27 0 0.06-0.32 0.11-0.64z"/>
	<path class="s73" d="m22.78 50.07q0.05 0 0.11 0 0 0.78 0 1.55 0 0.27 0.01 0.53 0 0.38 0 0.76 0 0.12 0 0.24 0 0.65-0.12 1.28-0.1 0-0.21 0 0.01-0.17 0.02-0.33 0.11-2.02 0.19-4.03z"/>
	<path class="s74" d="m32.85 4.25q0.38-0.01 0.75-0.02 0.11 0 0.22-0.01c0.5 0 0.81 0.11 1.25 0.35 0.27 0.06 0.27 0.06 0.52 0.07q0.12 0.01 0.25 0.03c0.09 0 0.09 0 0.19 0.01q0.05 0.15 0.1 0.32-0.1-0.03-0.21-0.06c-0.39-0.06-0.76-0.06-1.17-0.05q-0.05-0.1-0.1-0.21-0.43-0.1-0.86-0.18-0.12-0.02-0.24-0.04-0.3-0.05-0.6-0.1-0.05 0.1-0.1 0.21 0-0.16 0-0.32z"/>
	<path class="s75" d="m7.95 14.24c0.71-0.01 0.71-0.01 0.95 0.11 0.05 0.69-0.06 1.21-0.42 1.81q-0.11 0.05-0.22 0.1c0.03-0.1 0.03-0.1 0.05-0.21q0.15-0.74 0.17-1.49c-0.27-0.1-0.27-0.1-0.53-0.21q0-0.05 0-0.11z"/>
	<path class="s76" d="m28.61 73.56q0.1 0.05 0.21 0.11 0.37 0.03 0.74 0.06 0.11 0 0.22 0.01 0.35 0.02 0.7 0.04 0.23 0.02 0.47 0.03 0.58 0.04 1.16 0.07 0 0.05 0 0.11-2.04 0-4.14 0 0-0.05 0-0.11 0.26 0 0.53 0 0.06-0.16 0.11-0.32z"/>
	<path class="s77" d="m36.03 73.24q0.1 0 0.21 0 0 0.11 0 0.22 0.15 0.05 0.32 0.1 0 0.21 0 0.43-0.79 0-1.59 0 0.05-0.21 0.1-0.43 0.52 0.11 1.06 0.22-0.05-0.27-0.1-0.54z"/>
	<path class="s78" d="m45.67 43.58q0.05 0 0.1 0 0.06 0.63 0.11 1.28 0.26-0.05 0.53-0.11 0-0.1 0-0.21c0.33-0.1 0.63-0.12 0.98-0.11q0.14 0 0.29 0 0.1 0 0.21 0.01 0 0.05 0 0.1-0.2 0.01-0.41 0.02c-0.58 0.06-1.01 0.31-1.49 0.62-0.18-0.17-0.31-0.31-0.43-0.53q0.02-0.28 0.05-0.55 0.02-0.14 0.03-0.29 0.02-0.11 0.03-0.23z"/>
	<path class="s79" d="m28.19 19.45q0.05 0.16 0.1 0.32-0.78 0.79-1.59 1.6-0.15-0.06-0.32-0.11 0.89-0.89 1.81-1.81z"/>
	<path class="s80" d="m29.88 73.56q0.37-0.01 0.75-0.01c0.21 0 0.21 0 0.42-0.01 0.43 0.02 0.75 0.1 1.16 0.24q-0.05 0.1-0.1 0.21-1.05-0.05-2.12-0.11-0.06-0.16-0.11-0.32z"/>
	<path class="s81" d="m28.5 3.83c0.68-0.01 1.34-0.02 2.02 0.1q-0.06 0.21-0.11 0.43-0.11-0.02-0.22-0.05-0.65-0.12-1.31-0.21-0.13-0.03-0.27-0.06-0.05-0.11-0.11-0.21z"/>
	<path class="s82" d="m21.51 59q0.16 0 0.32 0c0.11 0.48 0.22 1.03 0 1.49q-0.16-0.06-0.32-0.11 0-0.68 0-1.38z"/>
	<path class="s83" d="m49.8 13.39c0.43 0 0.43 0 0.69 0.26q0.13 0.13 0.26 0.28 0.12 0.04 0.24 0.09 0.09 0.06 0.19 0.12c0.08 0.38 0.08 0.38 0.1 0.74q0.11 0 0.22 0 0 0.11 0 0.22-0.16 0-0.32 0-0.03-0.12-0.06-0.23c-0.18-0.36-0.4-0.53-0.71-0.79q-0.34-0.3-0.61-0.69z"/>
	<path class="s84" d="m32.74 67.61c0.2 0.02 0.2 0.02 0.43 0.11 0.1 0.2 0.1 0.2 0.19 0.46 0.16 0.4 0.2 0.47 0.59 0.71q0.5 0.14 1.02 0.21-0.06 0.1-0.11 0.21-0.25-0.05-0.51-0.1c-0.14-0.03-0.14-0.03-0.29-0.06-0.55-0.12-0.55-0.12-0.74-0.42-0.08-0.16-0.08-0.16-0.17-0.32q-0.08-0.15-0.16-0.32-0.13-0.24-0.25-0.48z"/>
	<path class="s85" d="m50.75 71.44q0.37 0.05 0.75 0.1 0 0.37 0 0.75-0.26-0.06-0.53-0.11c-0.03-0.12-0.03-0.12-0.05-0.25-0.05-0.28-0.05-0.28-0.17-0.49z"/>
	<path class="s86" d="m12.61 44.54c0.36 0.15 0.59 0.35 0.85 0.64q0 0.1 0 0.21 0.1 0 0.21 0 0.22 0.31 0.42 0.64-0.05 0.1-0.1 0.21c-1.02-1.1-1.02-1.1-1.38-1.7z"/>
	<path class="s87" d="m19.6 41.25c0.21 0.38 0.23 0.64 0.22 1.09-0.01 0.53 0.02 1.03 0.1 1.56-0.23-0.18-0.31-0.27-0.35-0.57q0-0.14 0-0.29 0-0.15 0-0.31 0.01-0.17 0.01-0.33 0-0.17 0.01-0.34 0-0.41 0.01-0.81z"/>
	<path class="s88" d="m4.03 30.93c0.21 0.11 0.21 0.11 0.42 0.22q-0.05 0.26-0.11 0.53 0.11 0 0.22 0c0.13 0.39 0.06 0.66 0 1.06-0.2-0.29-0.29-0.51-0.39-0.84q-0.04-0.14-0.08-0.28c-0.06-0.26-0.06-0.26-0.06-0.69z"/>
	<path class="s89" d="m57.85 79.09q0.53 0 1.06 0-0.2 0.26-0.42 0.53c-0.31-0.05-0.31-0.05-0.64-0.1q0-0.21 0-0.43z"/>
	<path class="s90" d="m47.79 64.42q1.25 0 2.54 0 0 0.05 0 0.11-1.04 0.05-2.12 0.1 0.05 0.11 0.11 0.22-0.26 0-0.53 0 0-0.21 0-0.43z"/>
	<path class="s91" d="m48.21 35.93q0.05 0 0.11 0c0.04 0.47-0.08 0.67-0.32 1.06-0.08 0.34-0.08 0.34-0.11 0.64q-0.2 0-0.42 0c0.17-0.6 0.45-1.14 0.74-1.7z"/>
	<path class="s92" d="m11.76 30.4c0.32 0.39 0.74 0.97 0.74 1.49q-0.21-0.05-0.42-0.11 0.05-0.2 0.11-0.42-0.16 0.05-0.32 0.11c-0.13-0.37-0.12-0.68-0.11-1.07z"/>
	<path class="s93" d="m36.56 5.95c0.3 0.06 0.41 0.09 0.63 0.32q0 0.16 0 0.32c-0.49-0.08-0.92-0.25-1.38-0.42 0.32-0.1 0.41-0.12 0.75 0q0-0.11 0-0.22z"/>
	<path class="s47" d="m32.85 80.9q0.36 0 0.74 0 0 0.26 0 0.53-0.37 0-0.74 0 0-0.26 0-0.53z"/>
	<path class="s94" d="m18.97 41.03c0.49 0.5 0.48 1.15 0.53 1.81q-0.11-0.05-0.22-0.11 0-0.1 0-0.21-0.1 0-0.21 0-0.05-0.73-0.1-1.49z"/>
	<path class="s95" d="m46.2 39.55c0.1 0.42 0.1 0.42 0.02 0.65-0.13 0.2-0.13 0.2-0.34 0.3q-0.07 0.14-0.15 0.27-0.08 0.13-0.17 0.26-0.15 0-0.31 0 0.46-0.73 0.95-1.48z"/>
	<path class="s96" d="m56.69 34.12q-0.21 0.11-0.41 0.22-0.12 0.06-0.23 0.12c-0.21 0.09-0.21 0.09-0.42 0.09q-0.04 0.09-0.09 0.18-0.19 0.36-0.44 0.67 0-0.26 0-0.53 0.16-0.05 0.32-0.11 0.04-0.1 0.08-0.2c0.27-0.47 0.7-0.59 1.19-0.44z"/>
	<path class="s97" d="m48.32 14.67q0.15 0.05 0.32 0.11 0.05 0.36 0.1 0.74-0.15 0.11-0.32 0.21c-0.29-0.18-0.4-0.26-0.5-0.6q-0.01-0.12-0.03-0.25c0.11 0.06 0.11 0.06 0.22 0.11q0.05 0.16 0.1 0.32 0.11 0.05 0.21 0.1-0.05-0.36-0.1-0.74z"/>
	<path class="s98" d="m61.67 74.94c-0.09 0.27-0.09 0.27-0.32 0.54q-0.53 0.06-1.06 0 0-0.06 0-0.11 0.31 0 0.64 0c0.02-0.1 0.02-0.1 0.04-0.21q0.03-0.1 0.06-0.22c0.27-0.13 0.36-0.08 0.64 0z"/>
	<path class="s99" d="m10.28 39.12q0.15 0.05 0.32 0.11c0.02 0.59 0.02 0.59-0.22 0.95q-0.1 0-0.21 0 0-0.1 0-0.21c-0.12-0.02-0.12-0.02-0.25-0.05-0.28-0.06-0.28-0.06-0.49-0.16q0.05-0.16 0.11-0.32c0.08 0.08 0.08 0.08 0.18 0.16 0.23 0.19 0.23 0.19 0.53 0.12 0.12-0.03 0.12-0.03 0.24-0.07q0-0.16 0-0.32-0.1 0-0.21 0 0-0.1 0-0.21z"/>
	<path class="s100" d="m43.87 10.84c0.35 0.24 0.38 0.31 0.5 0.69q0.04 0.12 0.09 0.25c0.04 0.23 0.04 0.23-0.06 0.55-0.33-0.4-0.48-0.79-0.64-1.27q0.05-0.11 0.11-0.22z"/>
	<path class="s101" d="m42.07 7.87c0.4 0.16 0.65 0.43 0.95 0.74q0.1 0.11 0.21 0.21-0.12-0.02-0.24-0.05c-0.29-0.06-0.29-0.06-0.61-0.05q-0.26-0.1-0.53-0.22 0.21-0.15 0.43-0.31-0.11-0.06-0.21-0.11 0-0.11 0-0.21z"/>
	<path class="s102" d="m41.75 7.33c0.4 0.06 0.59 0.23 0.85 0.54q0 0.15 0 0.32 0.1 0 0.21 0 0.1 0.2 0.21 0.42c-0.39-0.16-0.6-0.38-0.87-0.7q-0.12-0.12-0.23-0.26c-0.17-0.21-0.17-0.21-0.17-0.32z"/>
	<path class="s103" d="m38.36 73.67q-0.05 0.16-0.11 0.32-0.83 0-1.69 0 0-0.11 0-0.21 0.09 0 0.18 0c0.55 0.01 1.08-0.11 1.62-0.11z"/>
	<path class="s104" d="m37.72 71.44c-0.04 0.2-0.04 0.2-0.1 0.42-0.27 0.14-0.37 0.09-0.65 0.01q-0.12-0.03-0.24-0.06-0.08-0.03-0.17-0.05 0.05-0.11 0.1-0.22c0.37-0.08 0.69-0.1 1.06-0.1z"/>
	<path class="s105" d="m30.2 71.44q0.9 0.08 1.8 0.21 0 0.05 0 0.11-0.78 0.05-1.59 0.1-0.1-0.21-0.21-0.42z"/>
	<path class="s106" d="m36.24 69.42q0.73 0 1.48 0c-0.35 0.23-0.51 0.25-0.92 0.28-0.16 0.01-0.16 0.01-0.32 0.02-0.12 0.01-0.12 0.01-0.24 0.02q0-0.16 0-0.32z"/>
	<path class="s107" d="m24.26 68.03q0.21 0.15 0.41 0.3c0.11 0.08 0.11 0.08 0.23 0.16 0.22 0.19 0.37 0.37 0.53 0.61-0.26-0.11-0.26-0.11-0.53-0.21q-0.05 0.1-0.11 0.21-0.13-0.21-0.26-0.41-0.07-0.12-0.15-0.24c-0.12-0.2-0.12-0.2-0.12-0.42z"/>
	<path class="s108" d="m48.53 47.62q0.1 0 0.21 0c-0.15 0.57-0.54 0.89-0.95 1.28q-0.11-0.16-0.21-0.32 0.15 0 0.31 0 0-0.1 0-0.21 0.11 0 0.22 0 0.05-0.26 0.1-0.53 0.16 0 0.32 0 0-0.11 0-0.22z"/>
	<path class="s109" d="m3.5 27.21c0.33 0.33 0.3 0.72 0.31 1.17q-0.03 0.43-0.1 0.85-0.05 0-0.11 0c-0.1-0.67-0.11-1.33-0.1-2.02z"/>
	<path class="s110" d="m33.91 73.67q0.52 0 1.06 0 0 0.16 0 0.32-0.47 0-0.96 0-0.05-0.16-0.1-0.32z"/>
	<path class="s111" d="m29.67 65.48c0.79 0.11 0.79 0.11 1.59 0.22q0 0.05 0 0.1-0.73 0.05-1.49 0.11-0.05-0.21-0.1-0.43z"/>
	<path class="s112" d="m34.97 69.42q0.62 0 1.27 0 0 0.15 0 0.32-0.42 0-0.85 0 0-0.11 0-0.22-0.21-0.05-0.42-0.1z"/>
	<path class="s113" d="m33.7 73.78q0.05 0.1 0.1 0.21-0.73 0-1.48 0c0.54-0.27 0.79-0.36 1.38-0.21z"/>
	<path class="s114" d="m49.17 45.29q0.15 0 0.31 0 0 0.57 0 1.16 0.11 0 0.22 0-0.06 0.27-0.11 0.54c-0.27-0.28-0.25-0.42-0.27-0.79-0.02-0.34-0.05-0.6-0.15-0.91z"/>
	<path class="s115" d="m8.26 38.8q0.37 0 0.75 0-0.06 0.16-0.11 0.32-0.21 0.05-0.42 0.11-0.06 0.15-0.11 0.32c-0.21-0.32-0.21-0.32-0.17-0.56q0.03-0.09 0.06-0.19z"/>
	<path class="s116" d="m5.3 17.65q0.15 0 0.32 0 0 0.31 0 0.63-0.27 0.06-0.53 0.11c0.09-0.5 0.09-0.5 0.21-0.74z"/>
	<path class="s117" d="m35.07 5q0.26 0 0.53 0 0 0.1 0 0.21 0.21-0.05 0.43-0.11 0.05 0.16 0.1 0.32c0.21 0.13 0.21 0.13 0.43 0.21-0.32 0.11-0.32 0.11-0.61-0.02q-0.15-0.09-0.31-0.18-0.16-0.09-0.32-0.18-0.12-0.07-0.25-0.15 0-0.05 0-0.1z"/>
	<path class="s118" d="m71.52 51.98q0.16 0 0.32 0-0.05 0.11-0.1 0.22-0.14 0.52-0.22 1.06c-0.21-0.21-0.21-0.21-0.24-0.41q0-0.11 0-0.23 0-0.11 0-0.23c0.03-0.19 0.03-0.19 0.24-0.41z"/>
	<path class="s119" d="m19.28 45.92c0.22 0.05 0.22 0.05 0.43 0.11q-0.11 0-0.21 0 0 0.16 0 0.32c-0.21 0.1-0.21 0.1-0.43 0.21 0.1-0.52 0.1-0.52 0.21-0.64zm-0.31 0.64q0.05 0 0.1 0 0 0.37 0 0.75-0.05 0-0.1 0 0-0.37 0-0.75z"/>
	<path class="s120" d="m16.64 37.53q0.53 0.53 1.06 1.06-0.06 0.1-0.11 0.21c-0.48-0.23-0.64-0.47-0.85-0.96q-0.05-0.15-0.1-0.31z"/>
	<path class="s121" d="m38.57 14.46c0.57-0.03 1.04 0.05 1.59 0.21q-0.53 0.13-1.06 0.21-0.05-0.15-0.11-0.32c-0.21-0.07-0.21-0.07-0.42-0.1z"/>
	<path class="s122" d="m19.92 43.9q0.05 0.16 0.11 0.32 0.1 0 0.21 0 0 0.63 0 1.28c-0.29-0.58-0.33-0.95-0.32-1.6z"/>
	<path class="s123" d="m50.01 14.88q0.37 0 0.74 0 0.06 0.11 0.11 0.22c-0.15 0.01-0.15 0.01-0.3 0.02-0.35 0.04-0.35 0.04-0.48 0.3q-0.03 0.1-0.07 0.21-0.1-0.11-0.21-0.22 0.11-0.26 0.21-0.53z"/>
	<path class="s124" d="m47.26 12.44c0.4 0.29 0.43 0.7 0.53 1.17-0.21-0.11-0.21-0.11-0.32-0.43-0.21-0.13-0.21-0.13-0.42-0.21q0-0.11 0-0.21 0.1 0 0.21 0 0-0.16 0-0.32z"/>
	<path class="s125" d="m45.46 12.44c0.31 0.14 0.56 0.31 0.82 0.54 0.1 0.09 0.1 0.09 0.2 0.18q0.07 0.06 0.14 0.13c-0.42 0-0.53-0.16-0.85-0.43q-0.2-0.11-0.42-0.21 0.05-0.1 0.11-0.21z"/>
	<path class="s126" d="m21.62 58.04q0.2 0 0.42 0 0 0.42 0 0.85-0.05-0.1-0.11-0.21-0.15 0-0.31 0 0-0.31 0-0.64z"/>
	<path class="s127" d="m7.52 31.47c0.44 0.51 0.68 0.9 0.64 1.59-0.4-0.47-0.53-0.99-0.64-1.59z"/>
	<path class="s128" d="m22.25 27.43c0.12 0.45 0.11 0.56-0.1 0.95-0.21 0.11-0.21 0.11-0.43 0.22q0.26-0.58 0.53-1.17z"/>
	<path class="s129" d="m47.36 17.22q0.16 0 0.32 0 0.09 0.23 0.17 0.45 0.04 0.13 0.09 0.26c0.06 0.25 0.06 0.25-0.05 0.67q-0.26-0.68-0.53-1.38z"/>
	<path class="s130" d="m8.05 16.48c0.14 0.41 0.04 0.55-0.1 0.95q-0.06 0.37-0.11 0.75-0.05 0-0.1 0 0-0.58 0-1.17 0.1 0 0.21 0 0.05-0.26 0.1-0.53z"/>
	<path class="s131" d="m8.69 15.1q0.1 0.05 0.21 0.1-0.1 0.24-0.2 0.47-0.05 0.13-0.11 0.27c-0.11 0.22-0.11 0.22-0.33 0.32q0.1-0.48 0.22-0.95 0.1 0 0.21 0 0-0.11 0-0.21z"/>
	<path class="s132" d="m33.27 4.57q0.26 0 0.53 0 0 0.26 0 0.53-0.26-0.05-0.53-0.1 0-0.21 0-0.43z"/>
	<path class="s133" d="m33.17 73.24c0.3 0.06 0.4 0.1 0.63 0.32q-0.05 0.16-0.1 0.32-0.32-0.1-0.64-0.21 0.05-0.21 0.11-0.43z"/>
	<path class="s134" d="m32.42 73.14q0.16 0.05 0.32 0.1 0 0.21 0 0.43-0.21 0-0.42 0-0.05 0.16-0.11 0.32 0-0.16 0-0.32-0.15-0.05-0.32-0.11 0.26 0 0.53 0 0-0.21 0-0.42z"/>
	<path class="s135" d="m49.91 71.44c-0.17 0.22-0.17 0.22-0.43 0.42-0.34-0.03-0.34-0.03-0.63-0.1 0.33-0.34 0.61-0.34 1.06-0.32z"/>
	<path class="s136" d="m60.4 54.32q0.05 0 0.1 0 0.04 0.26 0.08 0.51c0.02 0.15 0.02 0.15 0.04 0.29-0.01 0.26-0.01 0.26-0.33 0.58q0.05-0.68 0.11-1.38z"/>
	<path class="s137" d="m58.07 50.28c-0.16 0.16-0.16 0.16-0.32 0.32q-0.37-0.1-0.74-0.21c0.4-0.27 0.59-0.2 1.06-0.11z"/>
	<path class="s138" d="m19.71 41.67c0.32 0.11 0.32 0.11 0.44 0.33q0.04 0.1 0.09 0.2-0.26 0.11-0.53 0.22 0-0.37 0-0.75z"/>
	<path class="s139" d="m17.06 38.48c0.53 0.21 0.53 0.21 0.74 0.53q-0.05 0.21-0.1 0.43-0.32-0.47-0.64-0.96z"/>
	<path class="s140" d="m32.95 4.36c0.71-0.03 0.71-0.03 1.06 0.21q-0.36 0-0.74 0-0.05 0.21-0.1 0.43-0.11-0.32-0.22-0.64z"/>
	<path class="s141" d="m36.45 64.74q0.05 0.21 0.11 0.42-0.26 0.06-0.53 0.11 0-0.16 0-0.32-0.11-0.05-0.22-0.1c0.32-0.11 0.32-0.11 0.64-0.11z"/>
	<path class="s142" d="m49.27 46.67q0.11 0.05 0.21 0.1c-0.03 0.35-0.1 0.43-0.37 0.67-0.13 0.09-0.13 0.09-0.26 0.18 0.07-0.37 0.22-0.64 0.42-0.95z"/>
	<path class="s143" d="m12.82 32.42c0.31 0.37 0.54 0.73 0.74 1.17-0.4-0.15-0.55-0.35-0.74-0.74q0-0.21 0-0.43z"/>
	<path class="s144" d="m49.38 24.45c0.34 0.52 0.33 0.88 0.32 1.49q-0.06 0-0.11 0c-0.17-0.52-0.23-0.94-0.21-1.49z"/>
	<path class="s145" d="m13.77 34.02c0.27 0.24 0.27 0.24 0.53 0.53q0 0.16 0 0.32c-0.26-0.13-0.26-0.13-0.53-0.32-0.03-0.29-0.03-0.29 0-0.53z"/>
	<path class="s146" d="m35.92 73.14q0.1 0.05 0.21 0.1 0 0.27 0 0.54-0.26-0.06-0.53-0.11 0-0.16 0-0.32 0.16 0.05 0.32 0.11 0-0.16 0-0.32z"/>
	<path class="s147" d="m21.3 57.94q0.15 0 0.32 0c0.12 0.5 0.12 0.5 0 0.74q-0.11 0-0.22 0-0.05-0.37-0.1-0.74z"/>
	<path class="s148" d="m30.73 33.49q0.05 0.15 0.1 0.31c-0.12 0.2-0.12 0.2-0.31 0.4q-0.09 0.1-0.18 0.2-0.07 0.07-0.14 0.15-0.11-0.05-0.21-0.11 0.36-0.47 0.74-0.95z"/>
	<path class="s149" d="m52.34 52.83q0.11 0.06 0.22 0.11-0.16 0.1-0.32 0.21 0.05-0.16 0.1-0.32zm-0.31 0.43q0.05 0.21 0.1 0.42-0.21 0.06-0.42 0.11 0.16-0.26 0.32-0.53z"/>
	<path class="s150" d="m43.97 52.83q0.16 0 0.32 0c-0.14 0.31-0.28 0.52-0.53 0.75q-0.05-0.21-0.1-0.43 0.15 0 0.31 0 0-0.16 0-0.32z"/>
	<path class="s151" d="m47.15 48.9q0.21 0.1 0.43 0.21-0.32 0.37-0.64 0.75c0-0.36 0.09-0.62 0.21-0.96z"/>
	<path class="s152" d="m14.83 35.4q0.27 0.26 0.53 0.53 0 0.05 0 0.11-0.26 0-0.53 0 0-0.32 0-0.64z"/>
	<path class="s153" d="m9.85 25.41c0.21 0.41 0.27 0.71 0.32 1.17q-0.15 0-0.32 0 0-0.58 0-1.17z"/>
	<path class="s154" d="m34.86 4.68q0.57 0 1.17 0 0.05 0.15 0.1 0.32c-0.63-0.11-0.63-0.11-1.27-0.22q0-0.05 0-0.1z"/>
	<path class="s155" d="m32.85 72.71q0.21 0.16 0.42 0.32-0.05 0.16-0.1 0.32-0.11-0.05-0.22-0.11c-0.06-0.27-0.06-0.27-0.1-0.53zm-0.11 0.53c0.11 0.06 0.11 0.06 0.21 0.11-0.1 0.16-0.1 0.16-0.21 0.32q0-0.21 0-0.43z"/>
	<path class="s156" d="m32.74 67.61q0.21 0.05 0.43 0.11 0.1 0.36 0.21 0.74-0.11 0-0.21 0-0.21-0.42-0.43-0.85z"/>
	<path class="s157" d="m53.93 41.25q0.16 0 0.32 0c-0.14 0.3-0.28 0.51-0.53 0.74 0.09-0.5 0.09-0.5 0.21-0.74z"/>
	<path class="s158" d="m56.69 31.68c0.12 0.35 0.09 0.6 0 0.96q-0.05 0.1-0.11 0.21c-0.2-0.2-0.12-0.49-0.13-0.76 0.03-0.2 0.03-0.2 0.24-0.41z"/>
	<path class="s159" d="m9.75 11.37q0.05 0.16 0.1 0.32c-0.31 0.27-0.31 0.27-0.63 0.53q-0.11-0.05-0.21-0.1 0.36-0.37 0.74-0.75z"/>
	<path class="s160" d="m37.72 5.1c0.47 0.11 0.47 0.11 0.96 0.22-0.43 0.1-0.43 0.1-0.75 0q-0.05 0.15-0.1 0.31-0.05-0.26-0.11-0.53z"/>
</svg>